<svg width="15" height="15" viewBox="0 0 15 15" fill="none" xmlns="http://www.w3.org/2000/svg">
<path d="M7.5 15C11.6421 15 15 11.6421 15 7.5C15 3.35786 11.6421 0 7.5 0C3.35786 0 0 3.35786 0 7.5C0 11.6421 3.35786 15 7.5 15Z" fill="url(#paint0_linear_393_5473)"/>
<path d="M2.7935 7.86698C3.67025 7.38405 4.64894 6.98098 5.56338 6.57585C7.13656 5.91229 8.716 5.26023 10.3114 4.65316C10.6218 4.54973 11.1795 4.4486 11.2342 4.90858C11.2042 5.5597 11.081 6.20701 10.9966 6.85433C10.7821 8.27783 10.5342 9.69645 10.2925 11.1153C10.2092 11.5879 9.61718 11.8325 9.23837 11.5301C8.32799 10.9152 7.41062 10.3062 6.51187 9.67701C6.21746 9.37786 6.49047 8.94826 6.7534 8.73463C7.50321 7.9957 8.2984 7.36788 9.00903 6.59076C9.20071 6.12788 8.63433 6.51798 8.44751 6.63752C7.42101 7.34489 6.41964 8.09546 5.33739 8.71714C4.78458 9.02145 4.14026 8.7614 3.5877 8.5916C3.09227 8.38647 2.36626 8.1798 2.79345 7.86704L2.7935 7.86698Z" fill="white"/>
<defs>
<linearGradient id="paint0_linear_393_5473" x1="10.0006" y1="2.5005" x2="6.25062" y2="11.25" gradientUnits="userSpaceOnUse">
<stop stop-color="#37AEE2"/>
<stop offset="1" stop-color="#1E96C8"/>
</linearGradient>
</defs>
</svg>
