<svg width="25" height="24" viewBox="0 0 25 24" fill="none" xmlns="http://www.w3.org/2000/svg">
<g clip-path="url(#clip0_393_5466)">
<path fill-rule="evenodd" clip-rule="evenodd" d="M11.459 2C11.1827 2 10.9178 2.10536 10.7224 2.29289C10.5271 2.48043 10.4173 2.73478 10.4173 3V11.382L13.0765 10.1056C13.2211 10.0361 13.3806 10 13.5423 10H21.8757C22.1519 10 22.4169 9.89464 22.6122 9.70711C22.8076 9.51957 22.9173 9.26522 22.9173 9V3C22.9173 2.73478 22.8076 2.48043 22.6122 2.29289C22.4169 2.10536 22.1519 2 21.8757 2H11.459ZM9.24928 0.87868C9.83533 0.316071 10.6302 0 11.459 0H21.8757C22.7045 0 23.4993 0.316071 24.0854 0.87868C24.6714 1.44129 25.0007 2.20435 25.0007 3V9C25.0007 9.79565 24.6714 10.5587 24.0854 11.1213C23.4993 11.6839 22.7045 12 21.8757 12H13.7882L9.8415 13.8944C9.51859 14.0494 9.13511 14.0329 8.82801 13.8507C8.52091 13.6684 8.33398 13.3466 8.33398 13V3C8.33398 2.20435 8.66323 1.44129 9.24928 0.87868Z" fill="url(#paint0_linear_393_5466)"/>
<path fill-rule="evenodd" clip-rule="evenodd" d="M1.95728 2.87868C2.54333 2.31607 3.33819 2 4.16699 2H5.72949C6.30479 2 6.77116 2.44772 6.77116 3C6.77116 3.55228 6.30479 4 5.72949 4H4.16699C3.89072 4 3.62577 4.10536 3.43042 4.29289C3.23507 4.48043 3.12533 4.73478 3.12533 5V21C3.12533 21.2652 3.23507 21.5196 3.43042 21.7071C3.62577 21.8946 3.89073 22 4.16699 22H15.6253C15.9016 22 16.1665 21.8946 16.3619 21.7071C16.5572 21.5196 16.667 21.2652 16.667 21V15C16.667 14.4477 17.1334 14 17.7087 14C18.284 14 18.7503 14.4477 18.7503 15V21C18.7503 21.7957 18.4211 22.5587 17.835 23.1213C17.249 23.6839 16.4541 24 15.6253 24H4.16699C3.33819 24 2.54333 23.6839 1.95728 23.1213C1.37123 22.5587 1.04199 21.7957 1.04199 21V5C1.04199 4.20435 1.37123 3.44129 1.95728 2.87868Z" fill="url(#paint1_linear_393_5466)"/>
<ellipse cx="10.4167" cy="19" rx="1.04167" ry="1" fill="url(#paint2_linear_393_5466)"/>
</g>
<defs>
<linearGradient id="paint0_linear_393_5466" x1="16.6673" y1="0" x2="16.6673" y2="14" gradientUnits="userSpaceOnUse">
<stop stop-color="#33B7EF"/>
<stop offset="1" stop-color="#6AE8D1"/>
</linearGradient>
<linearGradient id="paint1_linear_393_5466" x1="9.89616" y1="2" x2="9.89616" y2="24" gradientUnits="userSpaceOnUse">
<stop stop-color="#33B7EF"/>
<stop offset="1" stop-color="#6AE8D1"/>
</linearGradient>
<linearGradient id="paint2_linear_393_5466" x1="10.4167" y1="18" x2="10.4167" y2="20" gradientUnits="userSpaceOnUse">
<stop stop-color="#33B7EF"/>
<stop offset="1" stop-color="#6AE8D1"/>
</linearGradient>
<clipPath id="clip0_393_5466">
<rect width="25" height="24" fill="white"/>
</clipPath>
</defs>
</svg>
