<svg width="15" height="15" viewBox="0 0 15 15" fill="none" xmlns="http://www.w3.org/2000/svg">
<path d="M7.5 0C11.6421 0 15 3.35786 15 7.5C15 11.6421 11.6421 15 7.5 15C3.35786 15 0 11.6421 0 7.5C0 3.35786 3.35786 0 7.5 0Z" fill="#7F4DA0"/>
<path d="M9.49852 6.54965C9.46204 6.2533 9.37096 6.02061 9.2092 5.8145C8.99915 5.5491 8.73073 5.39018 8.33333 5.2959C8.07434 5.23307 7.96971 5.24028 7.87604 5.32584C7.78879 5.406 7.77176 5.5667 7.83843 5.67076C7.88532 5.74629 7.93941 5.77335 8.08987 5.80288C8.29021 5.83975 8.42867 5.88759 8.55461 5.9596C8.82194 6.11395 8.94642 6.3555 8.95976 6.74654C8.96599 6.93015 8.98185 6.9866 9.04598 7.05172C9.16484 7.17076 9.37637 7.14761 9.4661 7.00516C9.49903 6.95147 9.50405 6.9281 9.50752 6.80342C9.50982 6.72623 9.5065 6.61134 9.49852 6.54965Z" fill="white"/>
<path d="M10.5456 6.88354C10.4928 5.97561 10.1377 5.24514 9.50217 4.7312C9.14408 4.44241 8.71123 4.24383 8.23678 4.14726C8.06298 4.11272 7.74299 4.08473 7.6881 4.10074C7.63629 4.11557 7.56302 4.17166 7.53037 4.22239C7.49583 4.27739 7.48805 4.40021 7.51751 4.47125C7.56506 4.59001 7.65352 4.63196 7.90124 4.65363C8.28316 4.68705 8.67706 4.82122 8.97469 5.01986C9.31448 5.24603 9.58459 5.55537 9.75933 5.91888C9.91031 6.2312 10.0032 6.6813 10.0006 7.08436C9.99973 7.23013 10.0222 7.31246 10.0809 7.37264C10.1694 7.46519 10.2983 7.48543 10.4122 7.42396C10.5383 7.35761 10.5679 7.24115 10.5456 6.88354Z" fill="white"/>
<path d="M11.7041 10.3805C11.6864 10.3286 11.645 10.2485 11.6153 10.2025C11.4288 9.9209 10.4267 9.13667 9.92642 8.88019C9.64074 8.73344 9.42907 8.68453 9.27217 8.73046C9.10342 8.77793 9.0146 8.85647 8.73188 9.20782C8.61792 9.34866 8.50098 9.48061 8.46989 9.50134C8.39291 9.55472 8.24194 9.59772 8.13536 9.59772C7.88816 9.59622 7.43966 9.43612 7.09477 9.22561C6.82685 9.06256 6.48346 8.77051 6.21996 8.48143C5.90911 8.14195 5.69746 7.84249 5.53018 7.50449C5.31408 7.07013 5.25931 6.80476 5.34959 6.61055C5.3718 6.56164 5.40141 6.50977 5.41471 6.49344C5.42804 6.47863 5.56719 6.36447 5.72112 6.23994C6.0231 5.9998 6.07194 5.94494 6.12818 5.78039C6.19923 5.57135 6.18 5.35788 6.07046 5.14293C5.98608 4.97986 5.76553 4.62407 5.60568 4.39429C5.394 4.09188 4.86705 3.44553 4.76194 3.35804C4.57247 3.20388 4.32974 3.17718 4.06179 3.28098C3.7791 3.39068 3.24917 3.81762 3.02269 4.1156C2.81842 4.3854 2.73999 4.57663 2.72814 4.82865C2.71778 5.03618 2.73554 5.12217 2.84508 5.38754C3.70212 7.4689 4.98101 9.13073 6.73804 10.4501C7.65577 11.1395 8.60754 11.6643 9.59485 12.023C10.1706 12.232 10.4208 12.2424 10.7154 12.0705C10.8397 11.9963 11.1476 11.6806 11.3193 11.4508C11.6035 11.0683 11.7086 10.8919 11.7382 10.7511C11.7589 10.6547 11.7426 10.4872 11.7041 10.3805Z" fill="white"/>
<path d="M11.6108 7.09264C11.5919 6.57907 11.5054 6.15781 11.3251 5.68815C11.1471 5.22615 10.9669 4.92468 10.6267 4.51692C10.305 4.1346 10.0552 3.9163 9.65891 3.67331C9.10606 3.33475 8.43325 3.1107 7.67925 3.01648C7.42212 2.98355 7.36394 2.9859 7.28506 3.03854C7.13218 3.13825 7.13423 3.38696 7.28758 3.48518C7.33834 3.51642 7.38339 3.52781 7.58907 3.55473C7.90481 3.59724 8.10784 3.6373 8.34875 3.70303C9.29344 3.96127 10.0199 4.48913 10.5056 5.27271C10.912 5.92583 11.0808 6.57901 11.0568 7.41321C11.0485 7.69523 11.0545 7.74487 11.0976 7.81262C11.1802 7.93892 11.3979 7.9639 11.5096 7.8591C11.5791 7.79523 11.5922 7.74728 11.6059 7.5059C11.6124 7.37998 11.6138 7.1941 11.6108 7.09264Z" fill="white"/>
</svg>
