<svg width="15" height="15" viewBox="0 0 15 15" fill="none" xmlns="http://www.w3.org/2000/svg">
<path d="M7.5 15C11.6421 15 15 11.6421 15 7.5C15 3.35786 11.6421 0 7.5 0C3.35786 0 0 3.35786 0 7.5C0 11.6421 3.35786 15 7.5 15Z" fill="#25D366"/>
<path fill-rule="evenodd" clip-rule="evenodd" d="M7.74721 11.6727H7.74537C6.99897 11.6724 6.26556 11.4851 5.61417 11.1298L3.25 11.75L3.88269 9.43901C3.49242 8.76266 3.28706 7.99546 3.28739 7.20945C3.28837 4.75053 5.28901 2.75 7.74717 2.75C8.9402 2.75051 10.0599 3.21496 10.9019 4.05794C11.7439 4.90088 12.2074 6.02135 12.2069 7.21297C12.2059 9.67133 10.2061 11.6717 7.74721 11.6727ZM5.72366 10.3224L5.85901 10.4027C6.42813 10.7404 7.08051 10.9191 7.74566 10.9194H7.74716C9.79021 10.9194 11.4531 9.25652 11.4539 7.21263C11.4543 6.22217 11.0691 5.29088 10.3692 4.59022C9.66938 3.88957 8.73869 3.50352 7.74862 3.50318C5.70399 3.50318 4.04113 5.16589 4.04032 7.20962C4.04003 7.91003 4.23601 8.59214 4.60706 9.1823L4.69519 9.32255L4.32073 10.6904L5.72366 10.3224ZM9.84131 8.17307C9.91903 8.21064 9.97151 8.236 9.99393 8.27341C10.0218 8.31987 10.0218 8.54298 9.92896 8.80332C9.83606 9.06361 9.39089 9.30118 9.17677 9.33316C8.9848 9.36186 8.74185 9.37384 8.47492 9.289C8.31307 9.23765 8.10552 9.16909 7.83965 9.05427C6.79499 8.60319 6.08901 7.59068 5.95558 7.39932C5.94623 7.38591 5.93969 7.37653 5.93604 7.37166L5.93514 7.37046C5.87617 7.29178 5.48103 6.76456 5.48103 6.21892C5.48103 5.70563 5.73317 5.43659 5.84923 5.31275C5.85718 5.30426 5.86449 5.29646 5.87104 5.28931C5.97318 5.17774 6.09391 5.14985 6.1682 5.14985C6.24248 5.14985 6.31685 5.15054 6.38177 5.1538C6.38978 5.1542 6.39811 5.15415 6.40673 5.1541C6.47167 5.15372 6.55262 5.15325 6.63249 5.34509C6.66321 5.41892 6.70817 5.52837 6.75559 5.64381C6.85148 5.87725 6.95742 6.13517 6.97606 6.1725C7.00392 6.22828 7.02249 6.29333 6.98535 6.36773C6.97977 6.37888 6.97462 6.38941 6.96969 6.39947C6.94179 6.45643 6.92127 6.49832 6.87392 6.55361C6.8553 6.57535 6.83606 6.59879 6.81681 6.62222C6.77848 6.66891 6.74014 6.71559 6.70676 6.74884C6.65098 6.80441 6.59291 6.8647 6.65791 6.97626C6.72291 7.08782 6.94655 7.45272 7.27782 7.74821C7.63392 8.06584 7.94342 8.20008 8.1003 8.26813C8.13094 8.28142 8.15575 8.29218 8.17396 8.3013C8.28535 8.35709 8.35035 8.34776 8.41536 8.27341C8.48037 8.19904 8.69392 7.94801 8.7682 7.83647C8.84247 7.72495 8.91679 7.74353 9.01891 7.7807C9.12108 7.81792 9.66894 8.08747 9.78037 8.14324C9.80212 8.15413 9.82246 8.16396 9.84131 8.17307Z" fill="#FDFDFD"/>
</svg>
