<svg width="17" height="16" viewBox="0 0 17 16" fill="none" xmlns="http://www.w3.org/2000/svg">
<path fill-rule="evenodd" clip-rule="evenodd" d="M8.04688 -0.000488281C3.6286 -0.000488281 0.046875 3.58123 0.046875 7.99951C0.046875 12.4178 3.6286 15.9995 8.04688 15.9995C12.4652 15.9995 16.0469 12.4178 16.0469 7.99951C16.0469 3.58123 12.4652 -0.000488281 8.04688 -0.000488281ZM8.69825 10.525C8.61936 10.6081 8.46536 10.6249 8.46536 10.6249H7.95534C7.95534 10.6249 6.83012 10.6913 5.83887 9.67857C4.7579 8.57365 3.80338 6.38142 3.80338 6.38142C3.80338 6.38142 3.74829 6.23762 3.80797 6.16839C3.87517 6.09014 4.05839 6.08522 4.05839 6.08522L5.27752 6.07744C5.27752 6.07744 5.39229 6.09587 5.47451 6.15528C5.54255 6.20444 5.58053 6.2958 5.58053 6.2958C5.58053 6.2958 5.77752 6.78496 6.03838 7.22742C6.54798 8.09145 6.78504 8.28031 6.95783 8.18772C7.20992 8.05294 7.13438 6.96645 7.13438 6.96645C7.13438 6.96645 7.13897 6.57234 7.0075 6.39658C6.90566 6.26057 6.71367 6.22083 6.62895 6.20976C6.56008 6.20075 6.67277 6.04425 6.81885 5.9742C7.03838 5.86891 7.4257 5.86276 7.88355 5.86727C8.2404 5.87096 8.34307 5.89267 8.48247 5.92585C8.806 6.00249 8.7959 6.24809 8.7741 6.77814C8.76758 6.93666 8.76002 7.12063 8.76002 7.33312C8.76002 7.38087 8.7586 7.43177 8.75714 7.48414C8.74957 7.75569 8.74091 8.06665 8.92321 8.1824C9.0167 8.24139 9.245 8.191 9.81637 7.23889C10.0872 6.78742 10.2901 6.25688 10.2901 6.25688C10.2901 6.25688 10.3347 6.16224 10.4036 6.12168C10.4741 6.0803 10.5693 6.093 10.5693 6.093L11.8523 6.08522C11.8523 6.08522 12.2379 6.03975 12.3001 6.21099C12.3656 6.39003 12.1561 6.80872 11.6319 7.49454C11.1346 8.14527 10.8927 8.38486 10.9149 8.59675C10.9311 8.75157 11.0884 8.89161 11.3903 9.16646C12.0204 9.74073 12.1893 10.0429 12.2299 10.1155C12.2332 10.1215 12.2357 10.1259 12.2375 10.1288C12.5201 10.5889 11.9241 10.6249 11.9241 10.6249L10.7842 10.6405C10.7842 10.6405 10.5397 10.688 10.2175 10.4709C10.0487 10.3573 9.88374 10.1716 9.72665 9.99485C9.48675 9.72485 9.26512 9.47543 9.07596 9.53436C8.75835 9.6335 8.76795 10.305 8.76795 10.305C8.76795 10.305 8.77045 10.4488 8.69825 10.525Z" fill="#428DFF"/>
</svg>
