<svg width="114" height="102" viewBox="0 0 114 102" fill="none" xmlns="http://www.w3.org/2000/svg">
<path fill-rule="evenodd" clip-rule="evenodd" d="M109.826 101.892C116.686 103.772 107.86 80.4177 107.86 80.4177C111.791 69.1977 115.683 30.8931 113.241 19.2178C110.799 7.53883 101.641 7.94318 84.8135 4.7484C67.6846 1.46984 24.605 -0.406233 15.2565 0.0746236C5.96517 0.537266 -0.864991 6.59533 0.0889424 18.7625C1.06959 30.8931 15.9738 76.1009 23.3649 87.3209C30.7293 98.5409 41.6156 96.581 48.1099 95.8306C57.0158 94.7815 90.5409 87.3209 90.5409 87.3209C87.5417 83.6416 102.965 100.013 109.822 101.892H109.826ZM64.861 31.2939L70.8288 19.185H88.6864L69.1651 54.6737V75.5836H48.6747V54.6737L37.7617 34.8347L29.1267 19.185H46.9843L58.9046 43.3189L64.861 31.2939Z" fill="#ED484A"/>
</svg>
