<svg width="153" height="152" viewBox="0 0 153 152" fill="none" xmlns="http://www.w3.org/2000/svg">
<circle cx="33" cy="91.3135" r="31" fill="#33B7EF"/>
<g filter="url(#filter0_d_393_4781)">
<path d="M19.1701 80.8388C11.3852 66.8419 16.421 49.1842 30.4179 41.3992L74.114 17.0959C88.111 9.31089 105.769 14.3467 113.554 28.3437L126.678 51.9395C141.174 78.0028 131.797 110.883 105.733 125.379C79.67 139.875 46.7901 130.498 32.2939 104.435L19.1701 80.8388Z" fill="url(#paint0_linear_393_4781)"/>
</g>
<path d="M124.2 95.2785H105.39V73.6635H80.145V95.2785H49.125L99.615 25.8135H71.565L17.115 99.0735V117.058H79.32V141.313H105.39V117.058H124.2V95.2785Z" fill="white"/>
<circle cx="127" cy="93" r="14" fill="#33B7EF"/>
<circle cx="113" cy="27" r="7" fill="#33B7EF"/>
<defs>
<filter id="filter0_d_393_4781" x="0.508789" y="0.434082" width="147.986" height="148.763" filterUnits="userSpaceOnUse" color-interpolation-filters="sRGB">
<feFlood flood-opacity="0" result="BackgroundImageFix"/>
<feColorMatrix in="SourceAlpha" type="matrix" values="0 0 0 0 0 0 0 0 0 0 0 0 0 0 0 0 0 0 127 0" result="hardAlpha"/>
<feOffset dy="2"/>
<feGaussianBlur stdDeviation="7.5"/>
<feColorMatrix type="matrix" values="0 0 0 0 0.517647 0 0 0 0 0.572549 0 0 0 0 0.65098 0 0 0 0.45 0"/>
<feBlend mode="normal" in2="BackgroundImageFix" result="effect1_dropShadow_393_4781"/>
<feBlend mode="normal" in="SourceGraphic" in2="effect1_dropShadow_393_4781" result="shape"/>
</filter>
<linearGradient id="paint0_linear_393_4781" x1="52.266" y1="29.2475" x2="105.733" y2="125.379" gradientUnits="userSpaceOnUse">
<stop stop-color="#33B7EF"/>
<stop offset="1" stop-color="#6AE8D1"/>
</linearGradient>
</defs>
</svg>
