<svg width="153" height="152" viewBox="0 0 153 152" fill="none" xmlns="http://www.w3.org/2000/svg">
<circle cx="43.9258" cy="110" r="31" fill="#33B7EF"/>
<circle cx="15.4258" cy="84.5" r="2.5" fill="#33B7EF"/>
<g filter="url(#filter0_d_393_4762)">
<path d="M19.0959 80.8388C11.311 66.8419 16.3468 49.1842 30.3437 41.3992L74.0398 17.0959C88.0368 9.31089 105.695 14.3467 113.479 28.3437L126.603 51.9395C141.099 78.0028 131.722 110.883 105.659 125.379C79.5958 139.875 46.7159 130.498 32.2197 104.435L19.0959 80.8388Z" fill="url(#paint0_linear_393_4762)"/>
</g>
<path d="M45.0808 22.8132V44.2632H68.1808V138.313H94.9108V22.8132H45.0808Z" fill="white"/>
<circle cx="118.926" cy="110" r="14" fill="#33B7EF"/>
<circle cx="54.9258" cy="19" r="7" fill="#33B7EF"/>
<defs>
<filter id="filter0_d_393_4762" x="0.43457" y="0.434326" width="147.986" height="148.763" filterUnits="userSpaceOnUse" color-interpolation-filters="sRGB">
<feFlood flood-opacity="0" result="BackgroundImageFix"/>
<feColorMatrix in="SourceAlpha" type="matrix" values="0 0 0 0 0 0 0 0 0 0 0 0 0 0 0 0 0 0 127 0" result="hardAlpha"/>
<feOffset dy="2"/>
<feGaussianBlur stdDeviation="7.5"/>
<feColorMatrix type="matrix" values="0 0 0 0 0.517647 0 0 0 0 0.572549 0 0 0 0 0.65098 0 0 0 0.45 0"/>
<feBlend mode="normal" in2="BackgroundImageFix" result="effect1_dropShadow_393_4762"/>
<feBlend mode="normal" in="SourceGraphic" in2="effect1_dropShadow_393_4762" result="shape"/>
</filter>
<linearGradient id="paint0_linear_393_4762" x1="52.1918" y1="29.2475" x2="105.659" y2="125.379" gradientUnits="userSpaceOnUse">
<stop stop-color="#33B7EF"/>
<stop offset="1" stop-color="#6AE8D1"/>
</linearGradient>
</defs>
</svg>
