<svg width="98" height="58" viewBox="0 0 98 58" fill="none" xmlns="http://www.w3.org/2000/svg">
<rect width="67.5891" height="57.8688" rx="10" fill="white"/>
<path fill-rule="evenodd" clip-rule="evenodd" d="M6.11491 27.088C26.82 37.183 39.9023 40.3764 45.3618 36.565C46.4949 36.256 47.422 36.462 47.937 36.977C46.7009 36.874 46.0829 37.183 46.1859 37.9041C46.5979 39.8613 47.937 40.9944 49.9973 41.3034C48.0401 40.9944 46.5979 40.3764 45.6708 39.5523C47.422 40.9944 48.4521 42.3336 48.8641 43.6727C47.731 41.6125 46.3919 40.2733 44.8467 39.5523C45.5678 41.0974 46.7009 42.5396 48.2461 44.0847C47.422 43.8787 46.1859 42.6426 44.4347 40.1703C44.5377 40.7884 45.0528 41.6125 45.8768 42.6426C44.9498 41.7155 44.3317 40.9944 44.1257 40.3764C44.3317 42.0245 44.9498 43.2606 46.0829 44.1877C44.7437 42.8486 44.0227 41.7155 43.7136 40.5824C43.8166 42.1275 44.4347 43.4667 45.5678 44.8058C44.7437 43.9817 43.9197 42.7456 43.0956 40.9944C43.3016 41.9215 43.7136 42.9516 44.4347 43.9817C43.5076 42.8486 42.8896 42.0245 42.5805 41.3034C42.7865 43.0546 43.4046 44.3938 44.3317 45.3208C43.3016 44.9088 42.3745 44.0847 41.5504 42.7456C41.5504 43.5697 41.8594 44.3938 42.4775 45.2178C41.5504 44.4968 41.1384 43.7757 41.1384 43.0546C41.4474 44.1877 41.5504 45.0118 41.4474 45.5269C41.1384 44.2907 40.8293 43.4667 40.3143 43.0546C40.3143 44.4968 40.7263 45.8359 41.6534 47.072C40.7263 46.3509 39.9023 45.2178 39.2842 43.6727C39.2842 44.7028 39.6962 45.7329 40.5203 46.969C39.9023 46.454 39.2842 45.6299 38.7691 44.3938C38.8722 45.5269 39.2842 46.454 40.0053 47.278C39.4902 46.3509 38.7691 45.4239 37.8421 44.2907C38.1511 45.9389 38.7691 47.072 39.6962 47.6901C38.5631 47.175 37.533 45.9389 36.7089 43.9817C36.8119 45.6299 37.121 46.969 37.636 48.1021C36.812 47.175 36.3999 45.9389 36.1939 44.4968C35.7818 45.2178 35.6788 46.0419 35.7818 47.072C35.5758 46.0419 35.4728 45.3208 35.4728 44.9088C34.9578 45.8359 34.7517 46.866 34.7517 48.1021C34.4427 46.2479 34.3397 45.0118 34.5457 44.3938C33.9277 44.9088 33.5156 46.557 33.3096 49.3382C33.2066 46.66 33.3096 45.0118 33.5156 44.1877C32.7946 45.9389 32.2795 47.7931 31.9705 49.8533C32.2795 46.969 32.2795 45.2178 32.0735 44.8058C30.7343 47.072 29.9103 48.8232 29.6012 50.1623C30.3223 46.866 30.7344 44.9088 31.0434 44.2907C29.8073 45.6299 28.3651 46.66 26.82 47.175C28.8802 45.9389 29.9103 44.9088 29.8073 44.0847C27.438 45.3208 25.5838 46.866 24.3477 48.7202C25.9959 45.8359 27.129 44.0847 27.8501 43.4667C26.82 44.5998 25.3778 45.4239 23.5236 45.8359C25.5838 44.9088 26.82 43.9817 27.026 43.2606C24.4507 44.1877 22.6996 45.3208 21.8755 46.866C23.0086 45.1148 23.8327 43.8787 24.4507 43.2606C23.0086 44.3938 21.4634 45.0118 19.9183 45.2178C21.9785 44.2907 23.0086 43.5697 23.0086 43.0546C20.6393 43.5697 19.0942 44.8058 18.2701 46.866C19.4032 44.4968 20.3303 43.1576 21.0514 42.7456C19.6092 43.3637 18.3731 43.6727 17.446 43.6727C19.4032 43.0546 20.5363 42.2305 20.8454 41.2004C18.5792 41.8185 16.931 42.8486 15.9009 44.2907C16.931 42.7456 18.0641 41.6125 19.1972 41.0974C17.6521 41.8185 16.622 42.1275 16.0039 41.9215C17.034 41.7155 17.7551 41.2004 18.1671 40.5824C16.0039 41.4065 14.3557 41.4065 13.1196 40.6854C15.0768 41.0974 16.828 40.5824 18.2701 39.3463C16.828 40.1703 15.2828 40.4794 13.7377 40.1703C14.9738 40.1703 16.0039 39.7583 16.828 38.9342C14.6648 40.0673 12.5015 40.1703 10.4413 39.3463C13.6347 39.9643 15.7979 39.4493 16.828 37.9041C15.4888 38.7282 14.1497 39.1402 12.6046 39.1402C15.2828 38.6252 16.5189 37.4921 16.2099 35.9469C16.3129 34.9168 13.0166 31.9295 6.11491 27.088ZM63.5946 19.1563C63.1826 21.6285 61.6374 23.2767 58.9591 23.8947C36.6059 15.4479 18.0641 12.8726 3.12762 16.375C12.1925 12.8726 20.9484 9.26728 29.7042 10.5034C38.4601 11.7395 51.5424 14.0057 63.5946 19.1563ZM73.8956 36.1529C72.2475 37.4921 70.5993 41.7155 70.1873 43.0546C71.3204 40.9944 72.3505 39.1402 73.8956 38.4192C73.1745 39.9643 72.3505 41.9215 70.8053 43.4667C71.6294 43.2606 72.8655 42.0245 74.6167 39.5523C74.5137 40.1703 73.9986 40.9944 73.1745 42.0245C74.1016 41.0974 74.7197 40.2733 74.9257 39.7583C74.7197 41.4065 74.1016 42.6426 72.9685 43.5697C74.3077 42.2305 75.0287 41.0974 75.3378 39.9643C75.2347 41.5095 74.6167 42.8486 73.4836 44.1877C74.3077 43.3637 75.1317 42.1275 75.9558 40.3764C75.7498 41.3034 75.3378 42.3335 74.6167 43.3637C75.5438 42.2305 76.1618 41.4065 76.4709 40.6854C76.2649 42.4366 75.6468 43.7757 74.7197 44.7028C75.7498 44.2907 76.6769 43.3637 77.501 42.1275C77.501 42.9516 77.1919 43.7757 76.5739 44.5998C77.501 43.7757 77.913 43.0546 77.913 42.4366C77.604 43.5697 77.501 44.3938 77.604 44.9088C77.81 43.6727 78.222 42.8486 78.7371 42.4366C78.7371 43.8787 78.3251 45.2178 77.398 46.454C78.3251 45.7329 79.1491 44.5998 79.7672 43.0546C79.7672 44.0847 79.3552 45.1148 78.5311 46.3509C79.1491 45.8359 79.7672 45.0118 80.2822 43.7757C80.0762 44.9088 79.6642 45.8359 79.0461 46.66C79.4582 45.7329 80.1792 44.7028 81.2093 43.6727C80.9003 45.3208 80.2822 46.454 79.3552 47.072C80.4883 46.557 81.5184 45.3208 82.3425 43.3637C82.2394 45.0118 81.9304 46.3509 81.4154 47.4841C82.1364 46.557 82.6515 45.3208 82.8575 43.8787C83.2695 44.5998 83.3726 45.4239 83.2695 46.454C83.4756 45.4239 83.5786 44.7028 83.5786 44.2907C83.9906 45.2178 84.2996 46.2479 84.2996 47.4841C84.6087 45.6299 84.7117 44.3938 84.5057 43.7757C85.0207 44.2907 85.4328 45.9389 85.7418 48.7202C85.8448 46.0419 85.7418 44.3938 85.5358 43.5697C86.2568 45.3208 86.7719 47.175 87.0809 49.2352C86.7719 46.3509 86.7719 44.5998 86.9779 44.1877C88.317 46.454 89.1411 48.2051 89.4502 49.5443C88.7291 46.2479 88.214 44.2907 88.008 43.6727C89.2441 45.0118 90.6863 46.0419 92.2314 46.557C90.1712 45.3208 89.1411 44.2907 89.2441 43.4667C91.6134 44.7028 93.4676 46.2479 94.7037 48.1021C93.0555 45.2178 91.9224 43.4667 91.2013 42.8486C92.2314 43.9817 93.6736 44.8058 95.5278 45.2178C93.4676 44.2907 92.5405 42.4366 92.2314 41.7155C94.8067 42.6426 96.2488 44.7028 97.1759 46.2479C95.1157 42.9516 93.8796 40.7884 92.6435 39.2432C94.1886 39.8613 95.3217 40.1703 96.2488 40.1703C94.3946 39.5523 92.9525 39.0372 92.5405 38.0071C94.8067 38.6252 96.7639 39.3463 97.794 40.7884C96.7639 39.1402 94.8067 38.3162 93.5706 37.8011C95.1157 38.5222 97.4849 38.0071 98 37.8011C96.8669 38.5222 92.4374 36.874 87.699 35.3289C86.9779 36.2559 79.4582 39.2432 73.8956 36.1529ZM81.2093 18.3322C80.3853 20.1864 80.2822 22.1436 80.9003 24.2038C81.4154 23.8947 86.5659 21.7315 96.4548 17.8171C97.2789 15.3449 97.0729 13.0787 95.7338 11.0185C86.8749 15.3449 82.0334 17.8171 81.2093 18.3322Z" fill="#2E2C3B"/>
</svg>
