<svg width="463" height="391" viewBox="0 0 463 391" fill="none" xmlns="http://www.w3.org/2000/svg">
<path d="M114.686 208.697C126.697 179.027 146.847 153.356 172.816 134.64L209.374 108.293C282.792 55.3797 386.491 90.8315 412.154 177.617C423.589 216.289 404.549 257.436 367.669 273.753L216.122 340.801C160.301 365.498 96.6761 328.258 90.8825 267.497L114.686 208.697Z" fill="#D5FFF7"/>
<path d="M271.585 340.209C270.064 337.714 269.422 334.783 269.761 331.882C269.508 325.833 269.761 319.759 269.457 313.711C269.064 309.063 267.646 304.56 265.305 300.525C264.9 299.715 264.191 299.082 263.811 298.298C256.67 283.644 241.705 281.063 229.678 283.822C223.05 285.449 216.167 285.759 209.42 284.733C206.484 284.303 203.693 283.178 201.28 281.452C198.866 279.727 196.9 277.45 195.544 274.812C191.316 267.219 189.543 258.817 187.669 250.44C187.331 248.698 187.656 246.893 188.581 245.378C189.988 242.468 191.909 239.836 194.253 237.608C195.243 236.845 196.167 235.998 197.013 235.078C198.76 232.876 202.077 230.75 201.647 228.295C201.039 225.359 197.063 226.776 194.582 226.296C188.425 225.022 182.734 222.09 178.123 217.817C176.299 216.351 174.893 214.431 174.046 212.249C169.134 198.87 164.196 185.482 159.233 172.085C158.478 169.89 158.043 167.597 157.942 165.277C157.672 163.142 157.951 160.973 158.753 158.976C159.555 156.979 160.853 155.219 162.525 153.863C166.448 150.755 169.798 146.986 172.426 142.727C174.046 140.26 174.947 137.39 175.027 134.44C175.108 131.49 174.365 128.576 172.882 126.024C169.697 120.198 165.811 114.784 161.31 109.902C160.12 108.586 157.334 107.144 159.36 105.22C161.031 103.803 162.474 106.359 163.563 107.372C168.967 112.592 173.339 118.782 176.452 125.619C177.752 128.474 178.327 131.606 178.123 134.737C177.92 137.867 176.946 140.899 175.287 143.563C173.373 146.659 171.177 149.574 168.729 152.269C170.653 154.116 172.882 153.686 174.882 154.065C188.277 156.596 201.444 159.684 213.472 166.391C218.479 169.55 222.628 173.897 225.55 179.045C232.767 190.13 238.211 202.278 244.389 213.869C247.85 220.313 252.011 226.356 256.797 231.889C258.837 233.887 261.178 235.552 263.735 236.824C267.441 238.611 270.315 241.756 271.762 245.606C269.812 246.34 269.356 244.821 268.622 244.011C265.037 239.79 260.305 236.695 254.999 235.103C245.46 232.763 235.774 231.072 226.006 230.041C220.536 229.257 215.042 228.624 209.572 227.789C208.478 227.428 207.285 227.516 206.255 228.033C205.225 228.55 204.442 229.454 204.078 230.547C202.102 234.622 198.152 237.204 194.987 240.316C193.27 241.887 192.009 243.891 191.336 246.118C190.663 248.345 190.603 250.713 191.164 252.971C192.486 259.516 194.63 265.868 197.545 271.876C199.017 274.822 201.257 277.318 204.029 279.099C206.8 280.881 210.001 281.882 213.295 281.999C223.069 283.062 230.513 278.304 238.059 273.572C242.743 270.611 247.124 267.245 251.732 264.157C253.675 262.649 255.907 261.555 258.289 260.941C260.671 260.327 263.153 260.207 265.583 260.588C261.962 263.6 257.632 263.119 254.644 265.65C251.739 268.014 248.676 270.178 245.478 272.129C241.774 274.274 238.318 276.82 235.172 279.722C239.794 279.544 244.409 280.204 248.795 281.67C254.847 283.746 260.063 286.479 263.583 292.325C267.508 298.829 271.179 305.283 271.914 312.977C272.319 317.735 272.066 322.543 272.496 327.327C272.775 330.338 272.496 333.401 272.496 336.438C272.618 337.095 272.599 337.77 272.442 338.42C272.285 339.07 271.993 339.679 271.585 340.209ZM252.543 230.497C252.948 229.636 252.366 229.13 251.935 228.573C245.675 220.559 240.293 211.896 235.881 202.733C231.832 193.989 227.028 185.614 221.524 177.704C217.519 172.173 211.97 167.947 205.572 165.555C201.242 163.86 196.76 162.594 192.379 161.076C184.628 158.293 176.481 156.772 168.248 156.571C163.766 156.571 162.829 157.431 161.538 161.785C160.671 165.094 160.947 168.598 162.322 171.731C166.779 183.955 171.337 196.128 175.844 208.352C177.366 211.975 179.886 215.091 183.111 217.336C188.733 221.841 195.215 223.006 202.001 223.891C217.751 225.916 233.577 227.308 249.124 230.75C250.289 231.003 251.53 231.661 252.543 230.497Z" fill="black"/>
<path d="M242.945 259.576C242.924 259.978 242.807 260.369 242.605 260.717C242.402 261.064 242.12 261.359 241.781 261.575C236.488 266.156 230.183 269.168 224.258 272.711C222.064 273.909 219.637 274.617 217.143 274.786C210.053 275.622 207.014 272.635 207.85 265.65C208.483 260.183 208.483 260.183 210.534 257.501C211.775 258.361 210.888 259.374 210.736 260.335C210.201 262.588 210.005 264.908 210.154 267.219C210.635 270.914 212.686 272.762 216.257 272.281C219.465 271.976 222.567 270.974 225.347 269.345C230.411 266.004 236.21 263.954 240.768 259.829C241.045 259.541 241.414 259.358 241.811 259.311C242.208 259.265 242.609 259.359 242.945 259.576Z" fill="black"/>
<path d="M213.294 158.773C201.343 153.433 189.517 147.865 176.224 147.865C176.224 145.562 177.49 145.714 178.503 145.587C184.428 144.878 189.796 147.156 195.24 148.776C201.769 151.089 207.87 154.467 213.294 158.773Z" fill="black"/>
<path d="M240.033 254.59L233.247 253.882C232.335 253.882 231.348 253.477 231.348 252.465C231.348 251.452 232.335 251.098 233.272 251.199C234.59 251.174 235.893 251.47 237.071 252.061C238.249 252.652 239.265 253.52 240.033 254.59Z" fill="black"/>
<path d="M229.88 218.728C225.93 218.45 224.816 215.236 223.094 212.528C222.987 212.331 222.926 212.112 222.915 211.887C222.904 211.663 222.944 211.439 223.031 211.233C223.119 211.026 223.252 210.842 223.421 210.693C223.59 210.545 223.79 210.437 224.006 210.377C224.816 210.149 225.348 210.807 225.576 211.465C226.747 214.033 228.19 216.468 229.88 218.728Z" fill="black"/>
<path d="M217.953 209.845C220.485 211.845 219.447 215.691 222.739 217.134C223.144 217.311 222.739 218.88 221.878 219.386C221.698 219.521 221.486 219.605 221.263 219.633C221.04 219.66 220.814 219.628 220.607 219.542C220.4 219.455 220.219 219.315 220.082 219.137C219.945 218.959 219.857 218.748 219.827 218.526C219.118 215.641 218.561 212.73 217.953 209.845Z" fill="black"/>
<path d="M194.986 176.058C197.772 179.475 197.518 183.853 198.177 188.004L194.986 176.058Z" fill="black"/>
<path d="M164.145 159.608C166.854 163.354 165.31 166.618 166.5 169.352C164.549 166.501 163.711 163.034 164.145 159.608Z" fill="black"/>
<path d="M171.159 163.252C171.615 166.416 172.78 168.846 172.4 171.63C170.476 168.643 170.476 168.643 171.159 163.252Z" fill="black"/>
<path d="M180.376 174.11C178.73 172.364 179.237 170.06 178.021 167.631C179.946 170.111 179.946 170.111 180.376 174.11Z" fill="black"/>
<path d="M175.185 182.892C173.311 180.538 173.691 178.412 172.855 176.641C174.527 178.362 174.527 178.362 175.185 182.892Z" fill="black"/>
<path d="M193.948 212.275C195.189 214.805 195.974 216.602 196.936 218.703C194.353 216.83 194.353 216.83 193.948 212.275Z" fill="black"/>
<path d="M179.565 204.353C177.97 203.189 177.944 201.822 177.286 200.658C177.869 199.747 178.274 200.329 178.476 200.658C179.298 201.706 179.687 203.028 179.565 204.353Z" fill="black"/>
<path d="M209.724 201.493C210.283 202.145 210.668 202.928 210.84 203.77C211.013 204.611 210.969 205.482 210.712 206.302C210.104 204.505 209.142 203.315 209.724 201.493Z" fill="black"/>
<path d="M189.644 186.637C190.05 186.787 190.421 187.018 190.734 187.317C191.046 187.616 191.293 187.977 191.46 188.376C191.626 188.776 191.708 189.205 191.701 189.637C191.694 190.07 191.597 190.496 191.417 190.889C190.808 190.379 190.329 189.733 190.016 189.003C189.704 188.273 189.568 187.48 189.619 186.688L189.644 186.637Z" fill="black"/>
<path d="M207.04 188.536C205.217 187.498 205.293 185.701 205.04 183.626C205.955 184.056 206.666 184.824 207.025 185.768C207.384 186.712 207.362 187.759 206.964 188.687L207.04 188.536Z" fill="black"/>
<path d="M188.884 180.968C187.754 179.507 187.077 177.748 186.935 175.906C189.138 177.349 188.327 179.45 188.834 181.095L188.884 180.968Z" fill="black"/>
<path d="M206.964 188.586C207.486 189.183 207.849 189.902 208.017 190.677C208.185 191.451 208.154 192.256 207.926 193.015C206.458 191.547 206.964 190.004 207.04 188.536L206.964 188.586Z" fill="black"/>
<path d="M193.948 198.482C195.258 199.823 196.139 201.523 196.48 203.366C193.948 202.05 194.48 200.025 194.151 198.304L193.948 198.482Z" fill="black"/>
<path d="M217.27 205.214C216.785 205.027 216.393 204.656 216.18 204.182C215.967 203.708 215.949 203.17 216.13 202.683C216.249 202.568 216.394 202.484 216.554 202.44C216.713 202.396 216.881 202.392 217.042 202.43C217.24 202.597 217.403 202.803 217.521 203.033C217.64 203.264 217.712 203.516 217.733 203.774C217.754 204.033 217.724 204.293 217.645 204.54C217.565 204.787 217.438 205.016 217.27 205.214Z" fill="black"/>
<path d="M193.949 198.482C193.081 197.325 192.523 195.966 192.328 194.533C194.05 195.672 193.62 197.241 193.873 198.557L193.949 198.482Z" fill="black"/>
<path d="M187.973 197.368C187.973 197.799 187.973 198.102 187.492 197.976C187.347 197.919 187.218 197.83 187.113 197.716C187.008 197.602 186.929 197.466 186.884 197.318C186.884 197.065 186.884 196.482 187.086 196.457C187.719 196.356 187.795 196.938 187.973 197.368Z" fill="black"/>
<path d="M200.533 214.958C200.811 215.31 201.033 215.702 201.191 216.122C201.226 216.202 201.233 216.292 201.21 216.377C201.187 216.462 201.135 216.536 201.063 216.586C200.992 216.637 200.905 216.661 200.817 216.655C200.73 216.649 200.647 216.613 200.583 216.553C200.227 216.222 199.965 215.802 199.824 215.337C199.697 214.932 200.001 214.755 200.533 214.958Z" fill="black"/>
<path d="M184.605 188.358C184.807 188.611 185.137 188.814 185.187 189.092C185.183 189.423 185.114 189.75 184.985 190.054C184.782 189.801 184.478 189.573 184.402 189.295C184.41 188.973 184.478 188.655 184.605 188.358Z" fill="black"/>
<path d="M189.72 186.561C188.991 184.793 188.704 182.873 188.884 180.968C190.125 182.664 189.619 184.663 189.771 186.561H189.72Z" fill="black"/>
</svg>
