<svg width="1300" height="336" viewBox="0 0 1300 336" fill="none" xmlns="http://www.w3.org/2000/svg">
<path fill-rule="evenodd" clip-rule="evenodd" d="M852.252 156.6C869.585 173.933 891.919 182.6 919.252 182.6C946.585 182.6 968.919 173.933 986.252 156.6C1003.59 139.267 1012.25 115.433 1012.25 85.1C1012.25 64.7666 1008.25 47.2666 1000.25 32.6C992.56 18.4973 981.939 7.63068 968.392 8.49964e-08L1119.7 0L890.259 336H15C6.71571 336 0 329.284 0 321V15C0 6.71573 6.71573 0 15 0L869.65 8.49964e-08C856.41 7.63068 845.944 18.4973 838.252 32.6C830.252 47.2666 826.252 64.7666 826.252 85.1C826.252 115.433 834.919 139.267 852.252 156.6ZM974.759 336H1127.67C1120.81 332.156 1114.51 327.356 1108.75 321.6C1091.42 304.267 1082.75 280.433 1082.75 250.1C1082.75 229.767 1086.75 212.267 1094.75 197.6C1102.75 182.933 1113.75 171.767 1127.75 164.1C1142.09 156.433 1158.09 152.6 1175.75 152.6C1193.42 152.6 1209.25 156.433 1223.25 164.1C1237.59 171.767 1248.75 182.933 1256.75 197.6C1264.75 212.267 1268.75 229.767 1268.75 250.1C1268.75 280.433 1260.09 304.267 1242.75 321.6C1237 327.356 1230.69 332.156 1223.83 336H1285C1293.28 336 1300 329.284 1300 321V15C1300 6.71573 1293.28 0 1285 0H1204.2L974.759 336ZM934.752 118.6C930.752 125.267 925.585 128.6 919.252 128.6C912.919 128.6 907.585 125.267 903.252 118.6C899.252 111.6 897.252 100.433 897.252 85.1C897.252 69.7666 899.252 58.7666 903.252 52.1C907.585 45.1 912.919 41.5999 919.252 41.5999C925.585 41.5999 930.752 45.1 934.752 52.1C939.085 58.7666 941.252 69.7666 941.252 85.1C941.252 100.433 939.085 111.6 934.752 118.6ZM1191.25 283.6C1187.25 290.267 1182.09 293.6 1175.75 293.6C1169.42 293.6 1164.09 290.267 1159.75 283.6C1155.75 276.6 1153.75 265.433 1153.75 250.1C1153.75 234.767 1155.75 223.767 1159.75 217.1C1164.09 210.1 1169.42 206.6 1175.75 206.6C1182.09 206.6 1187.25 210.1 1191.25 217.1C1195.59 223.767 1197.75 234.767 1197.75 250.1C1197.75 265.433 1195.59 276.6 1191.25 283.6Z" fill="url(#paint0_linear_393_5148)"/>
<defs>
<linearGradient id="paint0_linear_393_5148" x1="1069.25" y1="-33.5999" x2="316.631" y2="450.651" gradientUnits="userSpaceOnUse">
<stop stop-color="#33B7EF"/>
<stop offset="1" stop-color="#6AE8D1"/>
</linearGradient>
</defs>
</svg>
