<svg width="375" height="326" viewBox="0 0 375 326" fill="none" xmlns="http://www.w3.org/2000/svg">
<path d="M152.824 49.3253C165.912 27.7114 192.034 17.7839 216.173 25.2502C272.646 42.7174 309.359 97.1217 304.425 156.028L299.081 219.825C294.17 278.464 242.652 322.02 184.012 317.11C99.3485 310.021 51.6406 216.422 95.6483 143.747L152.824 49.3253Z" fill="#E4F4FF"/>
<path d="M67.8792 105.994C88.6936 91.1615 110.53 76.0157 135.016 63.4655C159.552 50.8934 186.67 40.9773 217.933 36.697C230.503 34.9739 242.534 36.6147 254.247 41.1749C265.85 45.6912 277.117 53.0885 288.247 62.9223C290.704 65.0624 291.913 67.2136 292.155 68.9367C292.298 69.9354 292.144 70.8464 291.737 71.6146C291.281 72.4707 290.555 73.0963 289.605 73.442C288.329 73.903 286.637 73.8097 284.735 72.9536C284.586 72.8877 284.449 72.8054 284.323 72.7121C265.943 59.0151 251.955 52.7537 238.17 53.0446C224.347 53.3409 210.414 60.2224 192.205 72.8054C183.109 79.0887 174.298 86.0909 165.79 92.8462C148.196 106.818 131.883 119.774 116.06 124.021C109.843 125.689 101.154 126.738 92.0629 126.842C83.8679 126.935 75.3267 126.26 67.9672 124.576C65.3839 123.983 63.4382 123.138 62.0752 122.084C60.4867 120.86 59.6513 119.362 59.4974 117.661C59.3545 116.092 59.8327 114.456 60.866 112.799C62.2291 110.615 64.6309 108.299 67.8737 105.989L67.8792 105.994ZM91.8045 104.617C91.2164 105.089 90.3535 104.996 89.8753 104.409C89.4027 103.821 89.4961 102.96 90.0842 102.482C91.9474 100.979 93.9041 99.5465 95.9048 98.2295C97.8504 96.9454 99.8511 95.7656 101.863 94.7174C102.533 94.3717 103.363 94.6351 103.709 95.3046C104.056 95.9741 103.792 96.8027 103.121 97.1485C101.203 98.1417 99.2905 99.2776 97.4162 100.507C95.4761 101.785 93.5908 103.168 91.799 104.612L91.8045 104.617ZM128.157 172.12L127.201 171.994L126.365 171.884L125.524 171.769L124.683 171.648L123.842 171.527L123.199 175.868L124.057 175.994L124.914 176.115L125.772 176.236L126.623 176.351L127.596 176.477L128.157 172.12ZM278.612 106.291L278.288 106.746L277.859 107.339L277.43 107.932L277.002 108.524L276.567 109.111L276.056 109.803L279.579 112.431L280.112 111.713L280.552 111.109L280.992 110.505L281.432 109.902L281.871 109.293L282.196 108.837L278.618 106.285L278.612 106.291ZM267.933 119.988L267.592 120.388L267.125 120.926L266.658 121.464L266.19 121.996L265.718 122.529L265.245 123.055L265.069 123.253L268.339 126.189L268.526 125.98L269.01 125.437L269.494 124.894L269.972 124.345L270.45 123.796L270.928 123.242L271.269 122.841L267.933 119.982V119.988ZM256.028 132.615L255.489 133.131L254.984 133.608L254.478 134.086L253.972 134.557L253.461 135.029L252.862 135.573L255.813 138.827L256.44 138.256L256.962 137.773L257.484 137.29L258.006 136.802L258.523 136.313L259.073 135.787L256.028 132.62V132.615ZM242.897 143.908L242.397 144.287L241.853 144.699L241.309 145.11L240.759 145.516L240.21 145.922L239.66 146.323L239.418 146.498L241.985 150.06L242.243 149.873L242.809 149.462L243.375 149.045L243.941 148.628L244.502 148.205L245.063 147.783L245.563 147.404L242.897 143.914V143.908ZM228.568 153.627L228.305 153.786L227.722 154.132L227.134 154.472L226.546 154.812L225.958 155.147L225.364 155.482L224.814 155.789L226.947 159.63L227.519 159.312L228.129 158.966L228.739 158.621L229.343 158.269L229.948 157.918L230.553 157.562L230.816 157.402L228.574 153.627H228.568ZM213.19 161.535L212.558 161.809L211.931 162.078L211.299 162.347L210.667 162.61L210.035 162.874L209.397 163.131L209.194 163.214L210.821 167.291L211.046 167.203L211.7 166.94L212.354 166.671L213.008 166.397L213.657 166.122L214.306 165.842L214.938 165.568L213.19 161.54V161.535ZM196.943 167.483L196.349 167.659L195.679 167.851L195.008 168.043L194.332 168.229L193.656 168.416L192.98 168.597L192.777 168.652L193.892 172.899L194.118 172.839L194.816 172.652L195.514 172.46L196.206 172.268L196.899 172.071L197.591 171.868L198.185 171.692L196.948 167.478L196.943 167.483ZM180.075 171.423L179.767 171.478L179.052 171.599L178.338 171.714L177.623 171.829L176.903 171.939L176.183 172.043L175.788 172.098L176.403 176.444L176.815 176.384L177.557 176.274L178.294 176.159L179.03 176.044L179.767 175.923L180.498 175.802L180.806 175.747L180.069 171.418L180.075 171.423ZM162.855 173.41L162.173 173.448L161.42 173.487L160.662 173.525L159.903 173.558L159.145 173.591L158.518 173.613L158.667 178.003L159.31 177.981L160.09 177.948L160.871 177.915L161.646 177.877L162.421 177.833L163.102 177.794L162.855 173.41ZM145.487 173.58L145.129 173.563L144.332 173.53L143.535 173.492L142.739 173.454L141.936 173.41L141.145 173.36L140.87 177.739L141.683 177.789L142.502 177.833L143.321 177.877L144.14 177.915L144.954 177.948L145.311 177.964L145.492 173.58H145.487ZM109.261 160.201C109.728 159.082 111.02 158.56 112.135 159.027C113.257 159.493 113.779 160.783 113.311 161.897C111.575 166.023 109.788 170.013 107.931 173.86C106.408 177.004 104.858 180.006 103.27 182.848C112.08 185.768 122.007 187.765 132.559 188.824C132.741 188.819 132.922 188.835 133.104 188.879C142.332 189.779 152.033 189.96 161.882 189.423C161.965 189.412 162.052 189.406 162.14 189.406C163.509 189.329 164.878 189.241 166.246 189.137C166.323 189.126 166.4 189.121 166.477 189.115H166.504C168.307 188.978 170.11 188.813 171.913 188.627C171.995 188.61 172.083 188.599 172.166 188.588C172.226 188.583 172.281 188.583 172.341 188.583C175.211 188.281 178.091 187.913 180.96 187.491L180.976 187.485C181.064 187.469 181.152 187.452 181.24 187.447C182.482 187.26 183.724 187.063 184.961 186.854C185.021 186.832 185.076 186.81 185.142 186.788C185.401 186.706 185.664 186.673 185.923 186.69C190.067 185.971 194.195 185.126 198.278 184.143C198.366 184.116 198.46 184.094 198.548 184.078C202.901 183.029 207.204 181.833 211.431 180.489C212.283 180.22 213.129 179.94 213.976 179.66C213.992 179.655 214.009 179.649 214.025 179.638C214.091 179.611 214.157 179.594 214.223 179.572C215.597 179.111 216.966 178.628 218.318 178.135C218.334 178.124 218.351 178.113 218.367 178.102C218.631 177.942 218.917 177.844 219.208 177.805C227.596 174.688 235.582 170.962 242.914 166.605C242.991 166.556 243.068 166.506 243.145 166.468C248.668 163.17 253.818 159.515 258.49 155.504C258.644 155.323 258.82 155.169 259.012 155.054C268.647 146.658 276.194 136.709 280.695 125.185C281.129 124.06 282.399 123.494 283.531 123.933C283.636 123.972 283.74 124.021 283.833 124.076C295.062 129.931 307.77 132.445 319.587 130.59C330.211 128.922 340.132 123.703 347.618 114.171C348.36 113.222 349.739 113.052 350.69 113.792C351.526 114.44 351.756 115.576 351.306 116.481C344.194 130.842 334.053 138.596 322.615 141.801C309.056 145.599 293.776 142.91 279.678 137.246C279.359 137.784 279.041 138.316 278.711 138.849C290.902 144.457 304.362 148.705 317.432 149.44C328.315 150.054 338.923 148.222 348.255 142.679C349.3 142.065 350.646 142.41 351.262 143.453C351.877 144.496 351.531 145.84 350.487 146.455C340.341 152.48 328.892 154.472 317.19 153.813C303.527 153.045 289.528 148.639 276.886 142.827C291.787 151.964 309.16 157.99 326.171 159.29C342.209 160.514 357.901 157.54 370.823 149.001C371.834 148.331 373.192 148.611 373.862 149.621C374.473 150.543 374.297 151.756 373.494 152.464C360.49 166.106 344.551 171.698 327.705 171.961C307.38 172.279 285.79 164.794 266.553 154.379C266.471 154.335 266.394 154.285 266.322 154.236C265.712 154.84 265.091 155.432 264.465 156.019C264.487 156.047 264.509 156.074 264.531 156.102C265.514 157.424 266.553 158.714 267.636 159.965C274.633 165.101 281.992 169.349 289.346 172.126C297.585 175.237 305.797 176.488 313.436 175.029C314.629 174.804 315.778 175.583 316.003 176.768C316.229 177.959 315.448 179.106 314.261 179.331C306.22 180.867 297.712 179.742 289.225 176.741C295.601 180.033 302.466 182.453 309.518 183.875C326.298 187.255 344.122 184.956 358.902 175.188C359.913 174.518 361.271 174.798 361.941 175.808C362.568 176.752 362.364 178.008 361.501 178.711C358.726 180.983 355.835 183.008 352.856 184.796C336.158 194.839 316.767 197.434 299.108 194.537C296.783 194.158 294.491 193.681 292.232 193.11C285.328 192.578 278.266 190.087 271.318 186.168C263.464 181.74 255.747 175.495 248.602 168.224C248.229 168.46 247.855 168.696 247.481 168.932L248.146 169.711C264.481 188.802 282.646 210.029 341.753 204.941C342.962 204.843 344.023 205.743 344.122 206.95C344.221 208.157 343.32 209.216 342.111 209.315H342.083C310.892 213.601 290.281 209.694 275.171 202.291C275.435 202.768 275.523 203.345 275.369 203.915C275.056 205.084 273.852 205.781 272.682 205.468C266.075 203.701 259.446 200.014 253.027 194.932C246.613 189.851 240.396 183.359 234.631 175.994C234.444 176.088 234.252 176.175 234.065 176.269C240.919 186.591 249.168 197.078 260.667 204.788C272.137 212.481 286.933 217.475 306.973 216.91C307.489 216.861 308.006 216.806 308.528 216.751C309.732 216.619 310.815 217.486 310.952 218.688C310.958 218.754 310.963 218.82 310.963 218.88C310.963 218.902 310.969 218.924 310.969 218.94C311.018 220.148 310.084 221.168 308.875 221.223C308.358 221.245 307.847 221.262 307.336 221.278C287.631 223.182 272.324 219.209 259.985 212.322C247.355 205.271 237.912 195.206 230.058 185.279C229.426 184.484 228.431 182.898 227.469 181.367C227.095 180.774 226.727 180.187 226.403 179.677C225.21 180.17 224.007 180.648 222.797 181.12C227.233 188.149 232.02 194.488 237.022 199.794C242.177 205.265 247.542 209.606 252.95 212.427C254.022 212.986 254.439 214.303 253.879 215.379C253.318 216.449 251.999 216.866 250.922 216.306C245.046 213.244 239.297 208.607 233.823 202.801C228.458 197.111 223.336 190.273 218.604 182.684C218.29 182.794 217.983 182.903 217.669 183.013C224.738 200.815 233.993 213.766 244.156 222.551C256.072 232.846 269.235 237.406 281.553 237.329H281.558C282.767 237.242 283.822 238.147 283.91 239.354C283.998 240.562 283.091 241.615 281.882 241.703C268.724 242.729 254.395 238.229 241.012 227.693C229.288 218.457 218.274 204.568 209.425 185.675C208.804 185.861 208.188 186.037 207.562 186.218C210.815 193.813 214.361 200.826 218.219 206.884C222.303 213.294 226.744 218.644 231.58 222.48C232.531 223.232 232.685 224.609 231.932 225.558C231.179 226.508 229.8 226.661 228.849 225.91C223.627 221.766 218.867 216.048 214.525 209.233C210.414 202.785 206.682 195.366 203.291 187.387C202.774 187.524 202.258 187.656 201.736 187.787C205.072 197.764 208.749 206.912 214.514 215.148C220.45 223.627 228.667 231.238 241.144 237.966C241.595 238.169 242.045 238.372 242.507 238.57C243.617 239.052 244.123 240.342 243.639 241.451C243.634 241.467 243.623 241.483 243.617 241.505C243.59 241.571 243.562 241.632 243.529 241.692C242.969 242.768 241.644 243.185 240.567 242.625C240.056 242.361 239.555 242.093 239.061 241.824C225.545 235.672 216.356 228.242 209.458 219.703C202.313 210.863 197.69 200.914 193.271 190.004C193.238 189.916 193.205 189.829 193.183 189.741C191.683 190.048 190.177 190.344 188.671 190.619C191.309 198.642 194.261 206.149 197.58 212.833C201.202 220.12 205.27 226.447 209.843 231.419C210.662 232.308 210.607 233.697 209.716 234.514C208.826 235.332 207.435 235.277 206.616 234.388C201.747 229.098 197.454 222.425 193.651 214.77C190.133 207.691 187.039 199.789 184.296 191.371L184.054 191.409C186.736 203.471 190.479 214.6 196.107 224.247C202.021 234.388 210.046 242.921 221.143 249.226C222.198 249.825 222.566 251.158 221.967 252.212C221.368 253.265 220.033 253.633 218.977 253.035L218.966 253.029C206.847 246.944 197.872 238.345 191.04 227.946C184.29 217.662 179.657 205.633 176.161 192.523C175.689 192.578 175.222 192.638 174.749 192.688C175.705 201.545 177.788 210.122 180.789 218.035C184.093 226.733 188.501 234.629 193.744 241.226C194.497 242.175 194.343 243.552 193.392 244.304C192.441 245.056 191.062 244.902 190.309 243.953C184.791 237.006 180.146 228.703 176.684 219.577C173.545 211.307 171.369 202.362 170.374 193.143C169.846 193.193 169.324 193.242 168.796 193.286L170.764 253.095C170.803 254.303 169.852 255.312 168.643 255.351C167.433 255.389 166.422 254.44 166.384 253.232L164.421 193.621L164.262 193.632C163.921 204.524 163.009 214.468 161.19 223.182C159.227 232.583 156.215 240.589 151.747 246.883C151.043 247.866 149.675 248.096 148.691 247.399C147.707 246.697 147.476 245.33 148.174 244.348C152.269 238.586 155.056 231.123 156.897 222.293C158.639 213.925 159.53 204.365 159.87 193.873C159.068 193.906 158.271 193.939 157.474 193.961C156.765 201.649 155.754 208.799 154.319 215.297C152.764 222.354 150.703 228.67 147.987 234.097C147.449 235.184 146.13 235.623 145.041 235.085C143.953 234.547 143.514 233.23 144.052 232.144C146.597 227.057 148.537 221.081 150.021 214.353C151.384 208.168 152.357 201.369 153.05 194.054C152.077 194.065 151.109 194.065 150.142 194.065C148.301 204.453 145.448 214.847 141.463 223.923C137.731 232.423 132.994 239.793 127.151 244.99C126.244 245.797 124.859 245.714 124.051 244.809C123.243 243.903 123.326 242.521 124.233 241.714C129.58 236.962 133.955 230.113 137.446 222.178C141.2 213.634 143.92 203.844 145.701 194.005C144.679 193.977 143.662 193.944 142.645 193.9C140.864 201.846 138.732 209.057 136.088 215.362C133.202 222.244 129.707 228.066 125.409 232.615C124.579 233.499 123.188 233.537 122.309 232.709C121.424 231.88 121.386 230.492 122.215 229.614C126.134 225.465 129.35 220.087 132.037 213.683C134.5 207.812 136.511 201.084 138.204 193.664C136.836 193.577 135.478 193.467 134.126 193.352C131.317 201.27 127.855 208.849 124.123 215.445C120.044 222.655 115.631 228.703 111.382 232.797C110.508 233.636 109.123 233.609 108.282 232.736C107.441 231.864 107.469 230.481 108.343 229.641C112.3 225.833 116.444 220.131 120.308 213.305C123.749 207.224 126.964 200.244 129.63 192.896C128.564 192.775 127.503 192.644 126.448 192.501C124.095 198.878 121.501 204.629 118.566 209.639C115.417 215.017 111.871 219.555 107.826 223.1C106.914 223.896 105.529 223.802 104.732 222.891C103.935 221.981 104.028 220.598 104.941 219.802C108.618 216.581 111.871 212.41 114.79 207.422C117.461 202.867 119.847 197.637 122.023 191.843C120.907 191.661 119.803 191.469 118.703 191.266C117.016 195.442 115.23 199.048 113.053 202.296C110.613 205.94 107.716 209.107 103.973 212.086C103.022 212.838 101.643 212.685 100.89 211.735C100.137 210.786 100.291 209.408 101.242 208.657C104.622 205.968 107.227 203.12 109.409 199.865C111.272 197.083 112.844 193.977 114.328 190.388C112.69 190.032 111.074 189.648 109.492 189.236C106.853 194.263 104.045 198.795 101.027 202.746C97.7075 207.098 94.1295 210.736 90.2326 213.552C89.2488 214.259 87.8802 214.045 87.1657 213.063C86.4567 212.081 86.671 210.714 87.6548 210.001C91.1999 207.438 94.4757 204.102 97.5372 200.085C100.219 196.567 102.748 192.529 105.155 188.029C103.753 187.612 102.374 187.173 101.022 186.712C99.8236 188.693 98.5979 190.597 97.3393 192.408C95.6409 194.855 93.8931 197.127 92.0903 199.212C91.2989 200.129 89.9138 200.228 88.9959 199.437C88.0781 198.647 87.9791 197.264 88.7706 196.348C90.4689 194.383 92.1178 192.238 93.7227 189.922C95.3331 187.601 96.9106 185.093 98.455 182.42C100.34 179.161 102.171 175.665 103.962 171.961C105.732 168.301 107.491 164.366 109.239 160.207L109.261 160.201ZM332.882 163.955C326.435 166.44 319.658 167.121 312.755 166.473C317.767 167.28 322.753 167.681 327.644 167.604C337.329 167.456 346.683 165.42 355.269 160.92C348.107 163 340.561 163.966 332.882 163.96V163.955ZM292.474 161.216C285.004 158.193 277.634 154.154 270.637 149.687C270.252 150.126 269.862 150.559 269.461 150.993C276.87 154.955 284.614 158.461 292.468 161.216H292.474ZM273.473 146.295C282.674 152.129 292.496 157.172 302.251 159.976C306.511 161.2 310.754 161.995 314.915 162.237C300.476 159.554 286.197 153.846 273.687 146.016C273.616 146.109 273.544 146.202 273.467 146.29L273.473 146.295ZM264.64 163.214C263.145 162.111 261.667 160.964 260.21 159.789C258.672 161.074 257.083 162.325 255.451 163.538C256.495 165.233 257.671 166.874 258.968 168.454C266.866 178.074 279.079 185.252 292.946 188.802C293.315 188.824 293.677 188.846 294.04 188.857C294.568 188.874 295.051 189.071 295.42 189.395C296.865 189.719 298.333 189.999 299.811 190.24C309.276 191.793 319.257 191.678 329.002 189.571C322.214 190.032 315.355 189.532 308.655 188.182C291.743 184.775 275.836 175.907 264.64 163.214ZM238.627 174.008C244.029 180.818 249.817 186.816 255.758 191.524C261.183 195.821 266.724 199.031 272.209 200.782C259.859 194.049 251.301 184.978 243.331 176.527C242.254 175.385 241.188 174.249 240.171 173.19C239.66 173.465 239.149 173.733 238.632 174.002L238.627 174.008ZM281.8 133.411C294.952 138.613 309.056 141.071 321.434 137.603C326.759 136.11 331.777 133.504 336.284 129.52C331.261 132.275 325.847 134.047 320.257 134.925C308.226 136.813 295.387 134.53 283.872 128.999C283.229 130.497 282.542 131.962 281.805 133.405L281.8 133.411ZM137.017 67.3672C112.833 79.7582 91.1285 94.8162 70.4295 109.567C67.6594 111.542 65.6642 113.43 64.609 115.126C64.0758 115.976 63.823 116.712 63.8725 117.293C63.9109 117.743 64.2022 118.193 64.7683 118.632C65.6313 119.302 67.0108 119.867 68.9565 120.317C75.9808 121.925 84.1647 122.573 92.0354 122.479C100.73 122.38 109.019 121.382 114.933 119.796C129.883 115.784 145.849 103.103 163.069 89.4274C171.605 82.6502 180.443 75.6315 189.726 69.2165C208.633 56.1505 223.254 49.0057 238.099 48.6874C252.928 48.3691 267.669 54.861 286.768 69.0629C287.197 69.244 287.538 69.3373 287.785 69.3647C287.593 68.5855 286.84 67.5044 285.372 66.2258L285.361 66.2203C274.616 56.7267 263.778 49.6038 252.659 45.2686C241.639 40.9773 230.327 39.4353 218.527 41.0487C187.808 45.2577 161.146 55.0091 137.017 67.3727V67.3672Z" fill="black"/>
</svg>
