<svg width="422" height="367" viewBox="0 0 422 367" fill="none" xmlns="http://www.w3.org/2000/svg">
<path d="M147.604 332.868C105.505 350.442 57.774 325.527 48.1225 280.938L31.5692 204.464C17.2727 138.416 61.8117 74.0527 128.662 64.1561L157.775 59.8461C255.454 45.3855 336.693 134.459 313.317 230.389C307.637 253.699 291.211 272.919 269.07 282.162L147.604 332.868Z" fill="#E4FFEC"/>
<path d="M35.4458 223.817C34.4213 224.535 33.0086 224.285 32.2905 223.259C31.5724 222.232 31.8207 220.818 32.8451 220.1C41.1022 214.29 50.6886 209.68 60.1637 206.217C68.7372 203.083 77.2442 200.884 84.5997 199.584C84.6827 199.565 84.7675 199.55 84.8536 199.54C87.2479 199.122 89.5182 198.799 91.6262 198.572C91.7211 198.556 91.8157 198.546 91.9095 198.542C102.134 197.466 111.642 197.549 121.15 197.632C123.632 197.654 126.115 197.676 129.104 197.673C129.179 197.669 129.253 197.669 129.327 197.672C146.126 197.643 162.422 195.221 177.942 190.42C178.016 190.393 178.092 190.369 178.169 190.35C178.983 190.097 179.795 189.837 180.605 189.571C195.325 184.73 209.34 177.714 222.412 168.533C222.426 168.523 222.44 168.513 222.454 168.503C223.722 167.612 224.981 166.701 226.231 165.77C229.37 163.43 232.385 161.087 235.399 158.744C239.664 155.43 243.929 152.115 248.433 148.886C248.49 148.841 248.549 148.799 248.611 148.759C252.009 146.328 255.546 143.946 259.322 141.651C266.745 137.14 277.353 132.224 289.104 128.569C298.751 125.569 309.169 123.415 319.235 123.025C320.488 122.976 321.545 123.954 321.595 125.209C321.644 126.464 320.668 127.52 319.415 127.569C309.736 127.944 299.719 130.015 290.443 132.9C289.132 133.308 287.835 133.732 286.557 134.17C287.768 137.443 289.098 140.121 290.771 142.316C294.564 143.147 298.603 143.244 302.423 142.007C303.613 141.624 304.889 142.279 305.273 143.471C305.656 144.663 305.003 145.939 303.813 146.322C301.508 147.069 299.161 147.423 296.834 147.471C299.068 148.686 301.747 149.651 305.018 150.441C305.779 150.625 306.247 151.392 306.063 152.153C305.88 152.915 305.115 153.383 304.354 153.198C298.603 151.809 294.48 149.876 291.3 147.042C290.53 146.91 289.768 146.751 289.017 146.567C282.897 145.073 277.442 141.959 274.105 139.173C274.081 139.153 274.057 139.132 274.034 139.112C273.368 139.411 272.711 139.713 272.065 140.016C276.753 145.158 280.961 149.584 286.714 152.475C292.694 155.481 300.549 156.952 312.716 156.071C313.966 155.977 315.056 156.916 315.151 158.168C315.246 159.42 314.309 160.51 313.059 160.604C299.972 161.552 291.369 159.891 284.674 156.527C280.598 154.478 277.304 151.843 274.175 148.803C276.572 154.265 279.82 159.485 284.272 164.34C285.686 165.881 287.223 167.388 288.893 168.854C296.959 173.277 307.102 176.446 320.083 177.863C320.493 177.839 320.904 177.814 321.319 177.785C322.098 177.731 322.775 178.319 322.83 179.099C322.836 179.173 322.835 179.245 322.829 179.317C322.836 179.398 322.835 179.482 322.827 179.566C322.751 180.347 322.058 180.918 321.278 180.842C320.839 180.799 320.403 180.753 319.969 180.707C315.548 180.955 311.403 180.956 307.51 180.733C310.277 182.031 313.239 183.27 316.411 184.444C317.146 184.716 317.523 185.533 317.252 186.269C316.982 187.005 316.166 187.382 315.43 187.11C309.563 184.937 304.386 182.544 299.813 179.961C291.623 178.764 284.679 176.463 278.687 173.336C271.521 169.598 265.735 164.696 260.819 159.099C261.002 163 261.322 166.831 261.826 170.545C268.688 181.484 279.123 189.998 301.571 193.45C302.808 193.641 303.658 194.801 303.467 196.04C303.33 196.936 302.685 197.629 301.871 197.87C291.468 201.454 282.418 202.427 274.352 201.628C275.646 203.062 277.058 204.408 278.595 205.658C286.939 210.122 297.485 211.729 311.026 209.213C311.795 209.069 312.535 209.576 312.68 210.345C312.825 211.115 312.32 211.856 311.551 212.001C304.185 213.369 297.649 213.574 291.832 212.799C296.245 214.282 301.26 215.287 306.959 215.739C307.738 215.8 308.32 216.481 308.26 217.26C308.2 218.039 307.521 218.622 306.742 218.561C293.761 217.531 284.115 213.761 276.98 208.028C273.235 205.98 269.904 203.387 266.924 200.35C261.318 198.967 256.2 196.738 251.412 194.015C255.932 205.989 264.691 216.739 285.533 222.998C286.734 223.36 287.416 224.627 287.056 225.829C286.758 226.827 285.834 227.466 284.842 227.447C264.127 228.838 251.657 223.162 242.788 214.72C233.835 208.254 227.302 199.804 220.928 191.558C217.993 187.761 215.091 184.008 212.002 180.528C211.13 181.026 210.256 181.516 209.378 181.997C212.292 185.071 210.191 182.863 209.371 182.001L209.371 182.001L209.685 182.331C219.131 192.276 227.715 201.317 230.417 217.615C240.486 230.803 251.219 242.527 264.171 243.662C264.952 243.729 265.531 244.416 265.465 245.197C265.399 245.978 264.713 246.557 263.933 246.49C251.146 245.369 240.711 235.182 231.073 223.064C231.895 233.618 230.495 246.984 225.848 264.832C225.533 266.046 224.294 266.774 223.08 266.458C221.957 266.165 221.249 265.079 221.401 263.956C222.871 238.087 220.035 222.623 214.54 212.045C209.935 203.179 203.331 197.63 195.804 192.176C195.983 193.649 196.169 195.137 196.357 196.628C204.078 204.931 208.735 214.632 211.196 224.66C215.291 241.34 213.271 258.908 209.208 272.344C208.847 273.542 207.585 274.218 206.388 273.856C205.192 273.494 204.515 272.229 204.876 271.032C208.744 258.239 210.674 241.542 206.795 225.741C205.02 218.509 202.019 211.463 197.415 205.069C199.947 225.979 201.274 246.722 190.143 269.903C190.073 272.061 189.924 274.3 189.684 276.628C189.558 277.874 188.446 278.78 187.201 278.652C185.957 278.524 185.051 277.41 185.178 276.165C186.912 259.286 183.643 247.235 179.609 236.438C178.636 240.983 177.402 245.302 175.933 249.397C172.528 258.895 167.868 267.185 162.289 274.3C160.318 281.882 157.781 288.988 155.1 295.467C154.619 296.623 153.293 297.169 152.138 296.687C150.983 296.205 150.436 294.877 150.917 293.721C152.422 290.084 153.88 286.245 155.212 282.236C152.194 285.218 148.994 287.93 145.648 290.375C144.634 291.11 143.215 290.883 142.48 289.867C141.744 288.851 141.97 287.431 142.984 286.696C148.521 282.651 153.639 277.829 158.148 272.213C159.869 265.39 161.103 258.191 161.522 250.742C162.167 239.268 160.878 227.172 156.46 214.896C158.059 226.951 157.499 237.487 155.278 247.036C152.16 260.443 145.785 271.862 137.531 282.791L137.522 282.802L137.514 282.813L137.502 282.828L137.491 282.841L137.478 282.857L137.469 282.867L137.454 282.884L137.447 282.892L137.427 282.913L137.425 282.915C137.156 283.196 136.791 283.345 136.421 283.35L136.411 283.35L136.384 283.35L136.384 283.35C136.107 283.346 135.83 283.262 135.589 283.092L135.581 283.086L135.563 283.073L135.552 283.065L135.546 283.06L135.533 283.05L135.524 283.044L135.509 283.031L135.496 283.021L135.481 283.008L135.471 282.999L135.452 282.982L135.447 282.977C135.185 282.738 135.031 282.418 134.994 282.084L134.994 282.081L134.991 282.05L134.991 282.047L134.989 282.015L134.988 282.014L134.987 281.983L134.987 281.978L134.986 281.951L134.986 281.943C134.984 281.744 135.024 281.543 135.107 281.355C140.169 269.026 143.563 257.595 143.406 245.184C143.344 240.258 142.723 235.166 141.427 229.788C140.382 232.476 139.215 235.138 137.905 237.778C136.633 240.342 135.226 242.884 133.664 245.407C131.093 257.298 124.877 269.568 112.193 282.986C111.333 283.896 109.898 283.935 108.989 283.073C108.752 282.849 108.574 282.586 108.456 282.303C106.841 285.211 105.159 288.118 103.433 291.05C103.035 291.725 102.166 291.948 101.492 291.55C101.323 291.449 101.181 291.319 101.072 291.17C99.9251 293.187 98.7496 295.207 97.5527 297.24C97.155 297.914 96.2861 298.138 95.612 297.739C94.938 297.34 94.7139 296.47 95.1115 295.796C99.9557 287.57 104.443 279.549 108.038 271.199C107.952 271.125 107.87 271.042 107.794 270.953C106.985 269.999 107.101 268.571 108.052 267.762C108.772 267.148 109.478 266.534 110.169 265.92C111.295 262.922 112.298 259.871 113.152 256.741C116.228 245.469 117.402 233.132 115.587 218.603C113.287 238.89 107.433 258.695 75.9466 277.95C74.8764 278.6 73.4818 278.257 72.8319 277.185C72.2712 276.261 72.448 275.095 73.1944 274.375C83.7176 263.095 89.1986 253.076 91.7391 243.752C91.7083 243.787 91.6778 243.822 91.647 243.857C81.9892 254.693 70.3165 262.259 59.1699 267.956C58.4727 268.31 57.6205 268.03 57.2667 267.332C56.9129 266.634 57.1912 265.781 57.8885 265.427C62.0421 263.305 66.2684 260.918 70.4286 258.193C70.4477 257.975 70.5171 257.76 70.6378 257.566C74.808 249.883 78.6643 241.294 81.1772 231.911C82.0168 228.776 82.7065 225.552 83.2084 222.243C82.1914 224.537 80.9829 226.731 79.5745 228.861C74.6106 236.367 67.2117 242.973 56.9943 250.388C55.9801 251.123 54.5616 250.896 53.8261 249.88C53.0906 248.864 53.3164 247.444 54.3306 246.709C55.4214 245.917 56.4779 245.136 57.501 244.363C62.1547 239.055 66.0885 233.939 68.8497 228.278C71.8385 222.15 73.4769 215.324 73.2036 206.817C69.4626 207.844 65.595 209.066 61.7067 210.487C52.5689 213.827 43.348 218.256 35.4458 223.817ZM30.8244 197.646C29.5106 198.475 28.222 199.334 26.9501 200.226L29.5659 203.949C30.7772 203.099 32.0046 202.282 33.2558 201.492L30.8244 197.646ZM300.792 104.468C299.268 104.721 297.752 105.004 296.239 105.314L297.162 109.77C298.618 109.471 300.078 109.199 301.545 108.955L300.792 104.468ZM282.831 108.809C281.364 109.268 279.903 109.754 278.45 110.26L279.95 114.556C281.357 114.066 282.775 113.595 284.197 113.15L282.831 108.809ZM265.606 115.404C264.204 116.041 262.809 116.706 261.431 117.393L263.463 121.464C264.793 120.802 266.139 120.159 267.493 119.545L265.606 115.404ZM249.395 124.317C248.109 125.155 246.836 126.011 245.571 126.881L248.154 130.627C249.385 129.778 250.627 128.946 251.879 128.13L249.395 124.317ZM234.489 135.015C233.283 135.938 232.083 136.871 230.883 137.802L233.671 141.398C234.863 140.471 236.057 139.545 237.257 138.627L234.489 135.015ZM220.106 146.071C218.907 146.963 217.695 147.837 216.472 148.695L219.079 152.425C220.336 151.543 221.581 150.644 222.814 149.728L220.106 146.071ZM205.161 155.957C203.872 156.71 202.573 157.447 201.262 158.165L203.441 162.16C204.788 161.422 206.124 160.665 207.45 159.89L205.161 155.957ZM189.215 164.117C187.849 164.722 186.474 165.305 185.092 165.871L186.81 170.084C187.419 169.835 188.026 169.582 188.632 169.327C189.441 168.984 190.247 168.636 191.05 168.281L189.215 164.117ZM172.452 170.417C171.026 170.862 169.595 171.288 168.157 171.693L169.384 176.074C170.236 175.835 171.085 175.587 171.932 175.335C172.556 175.147 173.179 174.957 173.801 174.764L172.452 170.417ZM155.077 174.788C153.61 175.072 152.139 175.332 150.664 175.576L151.405 180.066C152.919 179.815 154.431 179.548 155.939 179.256L155.077 174.788ZM137.324 177.217C135.831 177.338 134.34 177.442 132.844 177.527L133.101 182.069C134.633 181.982 136.16 181.877 137.689 181.753L137.324 177.217ZM119.355 177.784C117.842 177.777 116.329 177.761 114.816 177.748L114.78 182.298C116.297 182.311 117.814 182.327 119.331 182.334L119.355 177.784ZM101.115 177.769C99.5838 177.801 98.0543 177.846 96.5245 177.91L96.718 182.455C98.2161 182.393 99.7141 182.349 101.213 182.318L101.115 177.769ZM82.721 179.069C81.1901 179.283 79.6663 179.532 78.1452 179.807L78.9625 184.283C80.4233 184.018 81.8886 183.78 83.359 183.574L82.721 179.069ZM64.6581 182.97C63.1797 183.393 61.7083 183.836 60.243 184.302L61.6289 188.637C63.0505 188.183 64.4798 187.754 65.9144 187.344L64.6581 182.97ZM47.2615 189.114C45.8446 189.72 44.4374 190.348 43.0425 191.003L44.9782 195.121C46.3266 194.489 47.685 193.882 49.0543 193.297L47.2615 189.114ZM283.885 135.113C282.156 135.743 280.464 136.396 278.818 137.065C280.923 138.531 283.6 139.988 286.588 141.087C285.587 139.318 284.707 137.338 283.885 135.113ZM268.17 142.474C268.056 142.349 267.959 142.214 267.879 142.073C266.809 142.624 265.779 143.176 264.792 143.724C268.184 150.08 272.378 155.982 277.933 161.051C273.922 155.531 271.139 149.658 269.171 143.571C268.839 143.209 268.506 142.843 268.17 142.474ZM299.408 176.447C299.85 176.711 300.298 176.973 300.752 177.233C301.444 177.329 302.144 177.418 302.854 177.498C301.676 177.166 300.528 176.816 299.408 176.447ZM293.127 175.76C291.017 174.284 289.067 172.758 287.262 171.188C285.286 170.091 283.428 168.921 281.678 167.685C272.937 161.51 266.918 153.714 262.331 145.14C262.11 145.271 261.891 145.402 261.676 145.533C261.332 145.742 260.991 145.952 260.651 146.163C260.608 148.955 260.608 151.737 260.666 154.492C265.854 160.992 272.045 166.674 279.989 170.819C283.905 172.862 288.254 174.537 293.127 175.76ZM256.505 148.825C256.928 149.448 257.357 150.066 257.793 150.678C257.79 149.778 257.793 148.876 257.801 147.973C257.366 148.255 256.934 148.54 256.505 148.825ZM257.86 155.52C256.567 153.863 255.336 152.158 254.154 150.416C253.65 150.763 253.15 151.111 252.652 151.461C252.911 152.068 253.182 152.708 253.453 153.345C255.04 157.083 256.585 160.72 258.304 164.188C258.077 161.339 257.935 158.443 257.86 155.52ZM263.834 180.889C264.885 184.902 266.248 188.699 267.998 192.207C268.708 193.631 269.484 195.008 270.33 196.334C276.656 197.58 283.617 197.665 291.438 196.057C278.307 192.773 269.883 187.477 263.834 180.889ZM259.815 175.873C255.444 169.643 252.44 162.569 249.276 155.119L248.876 154.177C248.717 154.294 248.558 154.41 248.4 154.527C252.353 170.076 257.566 184.887 266.218 195.34C266.305 195.365 266.392 195.39 266.48 195.414C266.125 194.775 265.784 194.127 265.456 193.469C262.797 188.139 260.997 182.199 259.815 175.873ZM245.947 156.359C244.986 157.084 244.031 157.811 243.081 158.541C244.684 163.649 245.652 169.013 246.637 174.472C247.409 178.753 248.194 183.095 249.315 187.362C253.117 189.83 257.117 192.018 261.409 193.706C254.177 183.477 249.536 170.223 245.947 156.359ZM227.524 170.461C229.457 172 231.378 173.581 233.318 175.179L233.892 175.651C233.041 173 232.151 170.361 231.154 167.751C230.418 168.31 229.681 168.865 228.941 169.416C228.47 169.767 227.998 170.116 227.524 170.461ZM237.886 178.914C239.799 180.457 241.741 181.985 243.729 183.462C243.157 180.73 242.662 177.991 242.172 175.275C241.317 170.534 240.474 165.866 239.24 161.511L238.183 162.332C236.624 163.544 235.064 164.756 233.498 165.96C235.163 170.217 236.531 174.564 237.886 178.914ZM245.355 190.224C243.648 189.062 241.979 187.851 240.339 186.611C244.662 199.544 250.45 212.037 265.654 221.69C266.436 221.853 267.23 222.005 268.041 222.142L268.031 222.201C269.4 222.446 270.824 222.645 272.306 222.794C255.363 214.645 248.854 202.782 245.355 190.224ZM236.362 183.516C234.355 181.915 232.384 180.292 230.432 178.684C228.151 176.806 225.896 174.95 223.664 173.196C222.606 173.924 221.541 174.638 220.471 175.339C224.561 180.055 227.865 185.583 231.236 191.226C237.57 201.827 244.161 212.852 256.892 218.756C244.89 208.482 240.332 196.082 236.362 183.516ZM231.143 199.788C229.843 197.716 228.592 195.623 227.35 193.545C223.968 187.883 220.656 182.341 216.596 177.8C215.898 178.229 215.198 178.653 214.496 179.072C217.493 182.486 220.316 186.137 223.169 189.829C225.749 193.166 228.356 196.537 231.143 199.788ZM203.685 184.974C210.135 190.469 216.197 198.421 222.343 206.749C218.551 198.243 212.682 192.059 206.407 185.452C203.107 181.979 210.317 189.589 205.406 184.41C205.341 184.341 205.282 184.27 205.227 184.196C204.714 184.458 204.2 184.717 203.685 184.974ZM225.22 215.415C224.089 213.894 222.965 212.366 221.846 210.844C214.87 201.363 208.063 192.11 200.893 186.332C199.788 186.856 198.679 187.367 197.565 187.865C205.934 193.865 213.317 199.85 218.57 209.962C222.452 217.435 225.092 227.095 225.98 240.595C227.182 230.287 226.768 222.159 225.22 215.415ZM185.977 193.303C185.758 193.134 185.578 192.933 185.439 192.712C185.249 192.779 185.059 192.846 184.869 192.912C187.753 202.39 190.378 211.966 192.074 222.508C193.011 228.329 193.663 234.438 193.918 240.977C195.614 226.798 193.88 213.112 192.119 199.231L192.05 198.69C190.207 196.806 188.187 195.005 185.977 193.303ZM190.269 190.916C190.577 191.169 190.881 191.423 191.182 191.679C191.14 191.323 191.098 190.966 191.056 190.607C190.794 190.711 190.531 190.814 190.269 190.916ZM67.8966 235.634C71.0568 232.59 73.6791 229.544 75.7934 226.347C79.9064 220.127 82.1338 213.247 82.7222 204.553C80.5647 204.985 78.3203 205.491 76.0156 206.075C76.4138 215.389 74.6594 222.836 71.3955 229.528C70.3694 231.632 69.1965 233.655 67.8966 235.634ZM87.316 203.727C87.2376 205.251 87.1142 206.727 86.9446 208.157C87.1502 216.809 85.9657 224.988 83.916 232.641C82.4308 238.187 80.4924 243.455 78.301 248.426C81.997 243.615 85.4628 238.367 88.4052 232.643C90.2124 229.127 91.8233 225.43 93.1707 221.542C92.6602 216.739 91.7736 212.007 90.8806 207.245C90.6305 205.911 90.3799 204.575 90.1499 203.316C89.2318 203.435 88.2862 203.573 87.316 203.727ZM114.608 261.782C114.966 261.431 115.319 261.081 115.668 260.73C116.951 257.412 118.083 254.03 119.032 250.551C122.808 236.717 123.717 221.278 119.754 202.152C118.872 202.144 117.989 202.137 117.105 202.132C116.919 204.043 116.763 205.836 116.613 207.606C116.628 207.652 116.64 207.701 116.651 207.75C120.716 227.362 119.773 243.233 115.883 257.485C115.488 258.934 115.062 260.365 114.608 261.782ZM111.029 277.551C117.135 270.734 121.483 264.207 124.505 257.859C122.075 260.683 119.399 263.493 116.449 266.297C114.805 270.105 112.982 273.839 111.029 277.551ZM120.497 255.563C123.856 251.724 126.735 247.862 129.217 243.958C132.135 229.994 129.832 216.516 127.315 202.208C125.85 202.203 124.267 202.191 122.657 202.177C126.575 221.506 125.612 237.193 121.764 251.295C121.371 252.734 120.948 254.156 120.497 255.563ZM100.089 202.44C99.6371 207.861 98.6705 212.992 97.2995 217.848C97.8722 221.931 98.2454 226.046 98.211 230.251C102.991 222.368 106.703 213.107 108.763 202.151C105.902 202.192 103.017 202.278 100.089 202.44ZM93.6012 228.265C92.7661 230.209 91.8698 232.103 90.9212 233.949C87.5849 240.439 83.607 246.32 79.3861 251.651C82.9354 248.751 86.3516 245.541 89.5367 241.967C90.7216 240.638 91.8746 239.257 92.9911 237.824C93.4837 234.572 93.6544 231.395 93.6012 228.265ZM96.1128 210.603C96.6124 208.018 96.991 205.358 97.2336 202.623C96.3836 202.685 95.5297 202.753 94.6714 202.83C94.898 204.076 95.1167 205.243 95.3352 206.408C95.5977 207.808 95.8596 209.205 96.1128 210.603ZM111.644 202.124C109.171 215.699 104.25 226.78 97.9043 235.923C96.9946 244.838 93.9307 254.25 86.8479 264.67C108.774 246.401 110.372 227.558 112.003 208.275C112.18 206.184 112.357 204.088 112.545 202.121C112.245 202.122 111.945 202.123 111.644 202.124ZM191.009 255.155C191.595 243.147 190.84 232.646 189.282 222.964C187.616 212.609 185.031 203.17 182.189 193.823L182.011 193.882C181.741 193.971 181.471 194.059 181.2 194.146C182.578 206.4 182.459 217.615 181.1 227.813C184.784 237.029 188.592 246.601 189.799 258.912C190.237 257.654 190.639 256.402 191.009 255.155ZM173.3 196.479C173.314 196.58 173.322 196.684 173.323 196.789C173.379 204.772 175.115 211.643 177.443 218.28C177.843 211.161 177.65 203.572 176.786 195.503C175.628 195.841 174.466 196.167 173.3 196.479ZM176.444 228.363C174.865 224.406 173.328 220.497 172.052 216.437C172.506 220.579 172.755 224.716 172.736 228.983C172.703 236.058 171.931 243.472 170.133 251.836C170.67 250.537 171.18 249.212 171.665 247.862C173.811 241.875 175.435 235.378 176.444 228.363ZM144.067 263.57C146.377 257.924 148.114 252.164 149.039 246.062C150.507 236.383 149.943 225.791 146.401 213.356C145.481 217.35 144.406 221.268 143.112 225.127C145.194 232.208 146.161 238.802 146.241 245.144C146.321 251.476 145.519 257.539 144.067 263.57ZM133.266 202.161C136.285 207.66 138.71 212.842 140.61 217.774C141.786 213.506 142.737 209.146 143.549 204.677C143.227 203.808 142.892 202.93 142.543 202.043C142.499 201.932 142.471 201.819 142.456 201.706C139.411 201.937 136.347 202.089 133.266 202.161ZM139.253 222.334C137.638 217.595 135.513 212.619 132.808 207.334C134.27 216.031 135.411 224.492 135.147 233.013C136.742 229.508 138.092 225.952 139.253 222.334ZM150.146 254.509C151.075 251.881 151.871 249.181 152.519 246.393C155.346 234.238 155.385 220.394 151.531 203.669C151.07 202.785 150.592 201.901 150.095 201.016C150.085 200.997 150.075 200.978 150.065 200.959C149.596 201.016 149.126 201.071 148.656 201.124C148.686 201.342 148.685 201.569 148.648 201.798C148.324 203.767 147.979 205.717 147.606 207.648C152.612 222.653 153.557 235.146 151.838 246.485C151.422 249.225 150.851 251.892 150.146 254.509ZM165.125 260.229C168.495 248.205 169.856 238.28 169.899 228.977C169.946 218.672 168.376 209.082 166.125 198.231C162.411 199.05 158.661 199.743 154.877 200.309C164.226 217.63 166.946 234.897 166.041 250.998C165.865 254.123 165.552 257.203 165.125 260.229Z" fill="black"/>
</svg>
