<svg width="30" height="31" viewBox="0 0 30 31" fill="none" xmlns="http://www.w3.org/2000/svg">
<path fill-rule="evenodd" clip-rule="evenodd" d="M15 0.0410156C6.71573 0.0410156 0 6.75674 0 15.041C0 23.3253 6.71573 30.041 15 30.041C23.2843 30.041 30 23.3253 30 15.041C30 6.75674 23.2843 0.0410156 15 0.0410156ZM11.702 7.09033C12.5554 7.05149 12.8281 7.04199 15.0007 7.04199H14.9982C17.1716 7.04199 17.4433 7.05149 18.2966 7.09033C19.1483 7.12933 19.73 7.26416 20.24 7.462C20.7666 7.66617 21.2116 7.9395 21.6566 8.38451C22.1017 8.82918 22.375 9.27552 22.58 9.80169C22.7767 10.3104 22.9117 10.8917 22.9517 11.7434C22.99 12.5967 23 12.8694 23 15.0421C23 17.2148 22.99 17.4868 22.9517 18.3401C22.9117 19.1915 22.7767 19.773 22.58 20.2818C22.375 20.8078 22.1017 21.2541 21.6566 21.6988C21.2121 22.1438 20.7665 22.4178 20.2405 22.6222C19.7315 22.82 19.1495 22.9548 18.2978 22.9938C17.4444 23.0327 17.1726 23.0422 14.9997 23.0422C12.8272 23.0422 12.5547 23.0327 11.7014 22.9938C10.8499 22.9548 10.2684 22.82 9.75936 22.6222C9.23352 22.4178 8.78718 22.1438 8.34268 21.6988C7.89784 21.2541 7.62451 20.8078 7.42 20.2816C7.22234 19.773 7.0875 19.1916 7.04833 18.3399C7.00967 17.4866 7 17.2148 7 15.0421C7 12.8694 7.01 12.5965 7.04817 11.7432C7.0865 10.8919 7.2215 10.3104 7.41984 9.80152C7.62484 9.27552 7.89818 8.82918 8.34318 8.38451C8.78785 7.93967 9.23419 7.66633 9.76036 7.462C10.269 7.26416 10.8504 7.12933 11.702 7.09033Z" fill="white"/>
<path fill-rule="evenodd" clip-rule="evenodd" d="M14.2831 8.48247C14.4225 8.48225 14.5724 8.48232 14.7341 8.48239L15.0008 8.48247C17.1368 8.48247 17.39 8.49014 18.2335 8.52847C19.0135 8.56414 19.4368 8.69447 19.7188 8.80397C20.0922 8.94897 20.3583 9.12231 20.6382 9.40231C20.9182 9.68231 21.0915 9.94898 21.2368 10.3223C21.3463 10.604 21.4769 11.0273 21.5124 11.8073C21.5507 12.6507 21.559 12.904 21.559 15.039C21.559 17.1741 21.5507 17.4274 21.5124 18.2707C21.4767 19.0507 21.3463 19.4741 21.2368 19.7558C21.0918 20.1291 20.9182 20.3949 20.6382 20.6748C20.3582 20.9548 20.0923 21.1281 19.7188 21.2731C19.4372 21.3831 19.0135 21.5131 18.2335 21.5488C17.3901 21.5871 17.1368 21.5954 15.0008 21.5954C12.8646 21.5954 12.6114 21.5871 11.7681 21.5488C10.9881 21.5128 10.5647 21.3824 10.2826 21.2729C9.90923 21.1279 9.64256 20.9546 9.36256 20.6746C9.08256 20.3946 8.90922 20.1286 8.76389 19.7551C8.65439 19.4734 8.52388 19.0501 8.48838 18.2701C8.45005 17.4267 8.44238 17.1734 8.44238 15.037C8.44238 12.9007 8.45005 12.6487 8.48838 11.8053C8.52405 11.0253 8.65439 10.602 8.76389 10.32C8.90889 9.94665 9.08256 9.67998 9.36256 9.39998C9.64256 9.11998 9.90923 8.94664 10.2826 8.80131C10.5646 8.6913 10.9881 8.5613 11.7681 8.52547C12.5061 8.49214 12.7921 8.48214 14.2831 8.48047V8.48247ZM19.271 9.81186C18.741 9.81186 18.311 10.2414 18.311 10.7715C18.311 11.3015 18.741 11.7315 19.271 11.7315C19.8011 11.7315 20.2311 11.3015 20.2311 10.7715C20.2311 10.2415 19.8011 9.81152 19.271 9.81152V9.81186ZM10.8926 15.042C10.8926 12.7732 12.732 10.9337 15.0008 10.9336C17.2696 10.9336 19.1087 12.7731 19.1087 15.042C19.1087 17.3108 17.2698 19.1495 15.001 19.1495C12.7321 19.1495 10.8926 17.3108 10.8926 15.042Z" fill="white"/>
<path d="M15.0007 12.374C16.4734 12.374 17.6674 13.5679 17.6674 15.0407C17.6674 16.5134 16.4734 17.7074 15.0007 17.7074C13.5278 17.7074 12.334 16.5134 12.334 15.0407C12.334 13.5679 13.5278 12.374 15.0007 12.374Z" fill="white"/>
</svg>
