<svg width="30" height="30" viewBox="0 0 30 30" fill="none" xmlns="http://www.w3.org/2000/svg">
<path fill-rule="evenodd" clip-rule="evenodd" d="M15 0C6.71573 0 0 6.69857 0 14.9617C0 23.2248 6.71573 29.9234 15 29.9234C23.2843 29.9234 30 23.2248 30 14.9617C30 6.69857 23.2843 0 15 0ZM16.2213 19.6845C16.0734 19.84 15.7847 19.8714 15.7847 19.8714H14.8284C14.8284 19.8714 12.7186 19.9956 10.86 18.1015C8.83318 16.0351 7.04346 11.9352 7.04346 11.9352C7.04346 11.9352 6.94016 11.6662 7.05207 11.5368C7.17806 11.3904 7.52161 11.3812 7.52161 11.3812L9.80747 11.3667C9.80747 11.3667 10.0227 11.4011 10.1768 11.5122C10.3044 11.6042 10.3756 11.775 10.3756 11.775C10.3756 11.775 10.745 12.6899 11.2341 13.5174C12.1896 15.1333 12.6341 15.4865 12.9581 15.3133C13.4307 15.0613 13.2891 13.0293 13.2891 13.0293C13.2891 13.0293 13.2977 12.2922 13.0512 11.9635C12.8602 11.7091 12.5003 11.6348 12.3414 11.6141C12.2123 11.5973 12.4236 11.3046 12.6975 11.1736C13.1091 10.9767 13.8353 10.9652 14.6938 10.9736C15.3629 10.9805 15.5554 11.0211 15.8167 11.0832C16.4234 11.2265 16.4044 11.6858 16.3636 12.6771C16.3513 12.9736 16.3372 13.3176 16.3372 13.715C16.3372 13.8044 16.3345 13.8995 16.3318 13.9975C16.3176 14.5053 16.3013 15.0869 16.6431 15.3034C16.8184 15.4137 17.2465 15.3195 18.3178 13.5388C18.8257 12.6945 19.206 11.7022 19.206 11.7022C19.206 11.7022 19.2898 11.5253 19.4189 11.4494C19.5511 11.372 19.7295 11.3958 19.7295 11.3958L22.1351 11.3812C22.1351 11.3812 22.8582 11.2962 22.9748 11.6164C23.0977 11.9513 22.7048 12.7343 21.7219 14.0169C20.7897 15.2338 20.336 15.6819 20.3775 16.0781C20.4078 16.3678 20.7028 16.6297 21.2688 17.1438C22.4503 18.2178 22.767 18.7829 22.8431 18.9186C22.8494 18.9299 22.8541 18.9382 22.8574 18.9436C23.3872 19.804 22.2697 19.8714 22.2697 19.8714L20.1326 19.9005C20.1326 19.9005 19.674 19.9894 19.0699 19.5833C18.7534 19.3708 18.4441 19.0237 18.1496 18.693C17.6998 18.1881 17.2842 17.7216 16.9295 17.8318C16.334 18.0172 16.352 19.273 16.352 19.273C16.352 19.273 16.3567 19.542 16.2213 19.6845Z" fill="white"/>
</svg>
