<svg width="98" height="58" viewBox="0 0 98 58" fill="none" xmlns="http://www.w3.org/2000/svg">
<rect width="67.5891" height="57.8688" rx="10" fill="white"/>
<path fill-rule="evenodd" clip-rule="evenodd" d="M6.11491 27.0877C26.82 37.1827 39.9023 40.376 45.3618 36.5646C46.4949 36.2556 47.422 36.4616 47.937 36.9767C46.7009 36.8736 46.0829 37.1827 46.1859 37.9037C46.5979 39.8609 47.937 40.9941 49.9973 41.3031C48.0401 40.9941 46.5979 40.376 45.6708 39.5519C47.422 40.9941 48.4521 42.3332 48.8641 43.6723C47.731 41.6121 46.3919 40.273 44.8467 39.5519C45.5678 41.0971 46.7009 42.5392 48.2461 44.0844C47.422 43.8783 46.1859 42.6422 44.4347 40.17C44.5377 40.788 45.0528 41.6121 45.8768 42.6422C44.9498 41.7151 44.3317 40.9941 44.1257 40.376C44.3317 42.0242 44.9498 43.2603 46.0829 44.1874C44.7437 42.8482 44.0227 41.7151 43.7136 40.582C43.8166 42.1272 44.4347 43.4663 45.5678 44.8054C44.7437 43.9813 43.9197 42.7452 43.0956 40.9941C43.3016 41.9211 43.7136 42.9512 44.4347 43.9813C43.5076 42.8482 42.8895 42.0242 42.5805 41.3031C42.7865 43.0543 43.4046 44.3934 44.3317 45.3205C43.3016 44.9084 42.3745 44.0844 41.5504 42.7452C41.5504 43.5693 41.8594 44.3934 42.4775 45.2175C41.5504 44.4964 41.1384 43.7753 41.1384 43.0543C41.4474 44.1874 41.5504 45.0114 41.4474 45.5265C41.1384 44.2904 40.8293 43.4663 40.3143 43.0543C40.3143 44.4964 40.7263 45.8355 41.6534 47.0717C40.7263 46.3506 39.9023 45.2175 39.2842 43.6723C39.2842 44.7024 39.6962 45.7325 40.5203 46.9686C39.9023 46.4536 39.2842 45.6295 38.7691 44.3934C38.8722 45.5265 39.2842 46.4536 40.0053 47.2777C39.4902 46.3506 38.7691 45.4235 37.8421 44.2904C38.1511 45.9385 38.7691 47.0717 39.6962 47.6897C38.5631 47.1747 37.533 45.9385 36.7089 43.9813C36.812 45.6295 37.121 46.9686 37.636 48.1018C36.812 47.1747 36.3999 45.9385 36.1939 44.4964C35.7818 45.2175 35.6788 46.0415 35.7818 47.0717C35.5758 46.0415 35.4728 45.3205 35.4728 44.9084C34.9578 45.8355 34.7517 46.8656 34.7517 48.1018C34.4427 46.2476 34.3397 45.0114 34.5457 44.3934C33.9277 44.9084 33.5156 46.5566 33.3096 49.3379C33.2066 46.6596 33.3096 45.0114 33.5156 44.1874C32.7946 45.9385 32.2795 47.7927 31.9705 49.8529C32.2795 46.9686 32.2795 45.2175 32.0735 44.8054C30.7344 47.0717 29.9103 48.8228 29.6012 50.162C30.3223 46.8656 30.7344 44.9084 31.0434 44.2904C29.8073 45.6295 28.3651 46.6596 26.82 47.1747C28.8802 45.9385 29.9103 44.9084 29.8073 44.0844C27.438 45.3205 25.5838 46.8656 24.3477 48.7198C25.9959 45.8355 27.129 44.0844 27.8501 43.4663C26.82 44.5994 25.3778 45.4235 23.5236 45.8355C25.5838 44.9084 26.82 43.9813 27.026 43.2603C24.4507 44.1874 22.6996 45.3205 21.8755 46.8656C23.0086 45.1145 23.8327 43.8783 24.4507 43.2603C23.0086 44.3934 21.4634 45.0114 19.9183 45.2175C21.9785 44.2904 23.0086 43.5693 23.0086 43.0543C20.6394 43.5693 19.0942 44.8054 18.2701 46.8656C19.4032 44.4964 20.3303 43.1573 21.0514 42.7452C19.6093 43.3633 18.3731 43.6723 17.446 43.6723C19.4032 43.0543 20.5363 42.2302 20.8454 41.2001C18.5791 41.8181 16.931 42.8482 15.9009 44.2904C16.931 42.7452 18.0641 41.6121 19.1972 41.0971C17.6521 41.8181 16.622 42.1272 16.0039 41.9211C17.034 41.7151 17.7551 41.2001 18.1671 40.582C16.0039 41.4061 14.3557 41.4061 13.1196 40.685C15.0768 41.0971 16.828 40.582 18.2701 39.3459C16.828 40.17 15.2828 40.479 13.7377 40.17C14.9738 40.17 16.0039 39.7579 16.828 38.9338C14.6648 40.067 12.5015 40.17 10.4413 39.3459C13.6347 39.9639 15.7979 39.4489 16.828 37.9037C15.4888 38.7278 14.1497 39.1399 12.6046 39.1399C15.2828 38.6248 16.5189 37.4917 16.2099 35.9466C16.3129 34.9165 13.0166 31.9292 6.11491 27.0877ZM63.5946 19.1559C63.1826 21.6281 61.6374 23.2763 58.9591 23.8944C36.6059 15.4475 18.0641 12.8723 3.12762 16.3746C12.1925 12.8723 20.9484 9.26691 29.7042 10.503C38.4601 11.7392 51.5424 14.0054 63.5946 19.1559ZM73.8956 36.1526C72.2475 37.4917 70.5993 41.7151 70.1873 43.0543C71.3204 40.9941 72.3505 39.1399 73.8956 38.4188C73.1745 39.9639 72.3505 41.9211 70.8053 43.4663C71.6294 43.2603 72.8655 42.0242 74.6167 39.5519C74.5137 40.17 73.9986 40.9941 73.1745 42.0242C74.1016 41.0971 74.7197 40.273 74.9257 39.7579C74.7197 41.4061 74.1016 42.6422 72.9685 43.5693C74.3077 42.2302 75.0287 41.0971 75.3378 39.9639C75.2347 41.5091 74.6167 42.8482 73.4836 44.1874C74.3077 43.3633 75.1317 42.1272 75.9558 40.376C75.7498 41.3031 75.3378 42.3332 74.6167 43.3633C75.5438 42.2302 76.1618 41.4061 76.4709 40.685C76.2649 42.4362 75.6468 43.7753 74.7197 44.7024C75.7498 44.2904 76.6769 43.3633 77.501 42.1272C77.501 42.9512 77.1919 43.7753 76.5739 44.5994C77.501 43.7753 77.913 43.0543 77.913 42.4362C77.604 43.5693 77.501 44.3934 77.604 44.9084C77.81 43.6723 78.222 42.8482 78.7371 42.4362C78.7371 43.8783 78.3251 45.2175 77.398 46.4536C78.3251 45.7325 79.1491 44.5994 79.7672 43.0543C79.7672 44.0844 79.3552 45.1145 78.5311 46.3506C79.1491 45.8355 79.7672 45.0114 80.2822 43.7753C80.0762 44.9084 79.6642 45.8355 79.0461 46.6596C79.4582 45.7325 80.1792 44.7024 81.2093 43.6723C80.9003 45.3205 80.2822 46.4536 79.3552 47.0717C80.4883 46.5566 81.5184 45.3205 82.3425 43.3633C82.2394 45.0114 81.9304 46.3506 81.4154 47.4837C82.1364 46.5566 82.6515 45.3205 82.8575 43.8783C83.2695 44.5994 83.3726 45.4235 83.2695 46.4536C83.4756 45.4235 83.5786 44.7024 83.5786 44.2904C83.9906 45.2175 84.2996 46.2476 84.2996 47.4837C84.6087 45.6295 84.7117 44.3934 84.5057 43.7753C85.0207 44.2904 85.4328 45.9385 85.7418 48.7198C85.8448 46.0415 85.7418 44.3934 85.5358 43.5693C86.2568 45.3205 86.7719 47.1747 87.0809 49.2349C86.7719 46.3506 86.7719 44.5994 86.9779 44.1874C88.317 46.4536 89.1411 48.2048 89.4502 49.5439C88.7291 46.2476 88.214 44.2904 88.008 43.6723C89.2441 45.0114 90.6863 46.0415 92.2314 46.5566C90.1712 45.3205 89.1411 44.2904 89.2441 43.4663C91.6134 44.7024 93.4676 46.2476 94.7037 48.1018C93.0555 45.2175 91.9224 43.4663 91.2013 42.8482C92.2314 43.9813 93.6736 44.8054 95.5278 45.2175C93.4676 44.2904 92.5405 42.4362 92.2314 41.7151C94.8067 42.6422 96.2488 44.7024 97.1759 46.2476C95.1157 42.9512 93.8796 40.788 92.6435 39.2429C94.1886 39.8609 95.3217 40.17 96.2488 40.17C94.3946 39.5519 92.9525 39.0369 92.5405 38.0068C94.8067 38.6248 96.7639 39.3459 97.794 40.788C96.7639 39.1399 94.8067 38.3158 93.5706 37.8007C95.1157 38.5218 97.4849 38.0068 98 37.8007C96.8669 38.5218 92.4374 36.8736 87.699 35.3285C86.9779 36.2556 79.4582 39.2429 73.8956 36.1526ZM81.2093 18.3318C80.3853 20.186 80.2822 22.1432 80.9003 24.2034C81.4154 23.8944 86.5659 21.7311 96.4548 17.8168C97.2789 15.3445 97.0729 13.0783 95.7338 11.0181C86.8749 15.3445 82.0334 17.8168 81.2093 18.3318Z" fill="white"/>
<mask id="mask0_393_5516" style="mask-type:alpha" maskUnits="userSpaceOnUse" x="0" y="0" width="68" height="58">
<rect width="67.5891" height="57.8688" rx="10" fill="white"/>
</mask>
<g mask="url(#mask0_393_5516)">
<path fill-rule="evenodd" clip-rule="evenodd" d="M6.11491 27.0877C26.82 37.1827 39.9023 40.376 45.3618 36.5646C46.4949 36.2556 47.422 36.4616 47.937 36.9767C46.7009 36.8736 46.0829 37.1827 46.1859 37.9037C46.5979 39.8609 47.937 40.9941 49.9973 41.3031C48.0401 40.9941 46.5979 40.376 45.6708 39.5519C47.422 40.9941 48.4521 42.3332 48.8641 43.6723C47.731 41.6121 46.3919 40.273 44.8467 39.5519C45.5678 41.0971 46.7009 42.5392 48.2461 44.0844C47.422 43.8783 46.1859 42.6422 44.4347 40.17C44.5377 40.788 45.0528 41.6121 45.8768 42.6422C44.9498 41.7151 44.3317 40.9941 44.1257 40.376C44.3317 42.0242 44.9498 43.2603 46.0829 44.1874C44.7437 42.8482 44.0227 41.7151 43.7136 40.582C43.8166 42.1272 44.4347 43.4663 45.5678 44.8054C44.7437 43.9813 43.9197 42.7452 43.0956 40.9941C43.3016 41.9211 43.7136 42.9512 44.4347 43.9813C43.5076 42.8482 42.8895 42.0242 42.5805 41.3031C42.7865 43.0543 43.4046 44.3934 44.3317 45.3205C43.3016 44.9084 42.3745 44.0844 41.5504 42.7452C41.5504 43.5693 41.8594 44.3934 42.4775 45.2175C41.5504 44.4964 41.1384 43.7753 41.1384 43.0543C41.4474 44.1874 41.5504 45.0114 41.4474 45.5265C41.1384 44.2904 40.8293 43.4663 40.3143 43.0543C40.3143 44.4964 40.7263 45.8355 41.6534 47.0717C40.7263 46.3506 39.9023 45.2175 39.2842 43.6723C39.2842 44.7024 39.6962 45.7325 40.5203 46.9686C39.9023 46.4536 39.2842 45.6295 38.7691 44.3934C38.8722 45.5265 39.2842 46.4536 40.0053 47.2777C39.4902 46.3506 38.7691 45.4235 37.8421 44.2904C38.1511 45.9385 38.7691 47.0717 39.6962 47.6897C38.5631 47.1747 37.533 45.9385 36.7089 43.9813C36.812 45.6295 37.121 46.9686 37.636 48.1018C36.812 47.1747 36.3999 45.9385 36.1939 44.4964C35.7818 45.2175 35.6788 46.0415 35.7818 47.0717C35.5758 46.0415 35.4728 45.3205 35.4728 44.9084C34.9578 45.8355 34.7517 46.8656 34.7517 48.1018C34.4427 46.2476 34.3397 45.0114 34.5457 44.3934C33.9277 44.9084 33.5156 46.5566 33.3096 49.3379C33.2066 46.6596 33.3096 45.0114 33.5156 44.1874C32.7946 45.9385 32.2795 47.7927 31.9705 49.8529C32.2795 46.9686 32.2795 45.2175 32.0735 44.8054C30.7344 47.0717 29.9103 48.8228 29.6012 50.162C30.3223 46.8656 30.7344 44.9084 31.0434 44.2904C29.8073 45.6295 28.3651 46.6596 26.82 47.1747C28.8802 45.9385 29.9103 44.9084 29.8073 44.0844C27.438 45.3205 25.5838 46.8656 24.3477 48.7198C25.9959 45.8355 27.129 44.0844 27.8501 43.4663C26.82 44.5994 25.3778 45.4235 23.5236 45.8355C25.5838 44.9084 26.82 43.9813 27.026 43.2603C24.4507 44.1874 22.6996 45.3205 21.8755 46.8656C23.0086 45.1145 23.8327 43.8783 24.4507 43.2603C23.0086 44.3934 21.4634 45.0114 19.9183 45.2175C21.9785 44.2904 23.0086 43.5693 23.0086 43.0543C20.6394 43.5693 19.0942 44.8054 18.2701 46.8656C19.4032 44.4964 20.3303 43.1573 21.0514 42.7452C19.6093 43.3633 18.3731 43.6723 17.446 43.6723C19.4032 43.0543 20.5363 42.2302 20.8454 41.2001C18.5791 41.8181 16.931 42.8482 15.9009 44.2904C16.931 42.7452 18.0641 41.6121 19.1972 41.0971C17.6521 41.8181 16.622 42.1272 16.0039 41.9211C17.034 41.7151 17.7551 41.2001 18.1671 40.582C16.0039 41.4061 14.3557 41.4061 13.1196 40.685C15.0768 41.0971 16.828 40.582 18.2701 39.3459C16.828 40.17 15.2828 40.479 13.7377 40.17C14.9738 40.17 16.0039 39.7579 16.828 38.9338C14.6648 40.067 12.5015 40.17 10.4413 39.3459C13.6347 39.9639 15.7979 39.4489 16.828 37.9037C15.4888 38.7278 14.1497 39.1399 12.6046 39.1399C15.2828 38.6248 16.5189 37.4917 16.2099 35.9466C16.3129 34.9165 13.0166 31.9292 6.11491 27.0877ZM63.5946 19.1559C63.1826 21.6281 61.6374 23.2763 58.9591 23.8944C36.6059 15.4475 18.0641 12.8723 3.12762 16.3746C12.1925 12.8723 20.9484 9.26691 29.7042 10.503C38.4601 11.7392 51.5424 14.0054 63.5946 19.1559ZM73.8956 36.1526C72.2475 37.4917 70.5993 41.7151 70.1873 43.0543C71.3204 40.9941 72.3505 39.1399 73.8956 38.4188C73.1745 39.9639 72.3505 41.9211 70.8053 43.4663C71.6294 43.2603 72.8655 42.0242 74.6167 39.5519C74.5137 40.17 73.9986 40.9941 73.1745 42.0242C74.1016 41.0971 74.7197 40.273 74.9257 39.7579C74.7197 41.4061 74.1016 42.6422 72.9685 43.5693C74.3077 42.2302 75.0287 41.0971 75.3378 39.9639C75.2347 41.5091 74.6167 42.8482 73.4836 44.1874C74.3077 43.3633 75.1317 42.1272 75.9558 40.376C75.7498 41.3031 75.3378 42.3332 74.6167 43.3633C75.5438 42.2302 76.1618 41.4061 76.4709 40.685C76.2649 42.4362 75.6468 43.7753 74.7197 44.7024C75.7498 44.2904 76.6769 43.3633 77.501 42.1272C77.501 42.9512 77.1919 43.7753 76.5739 44.5994C77.501 43.7753 77.913 43.0543 77.913 42.4362C77.604 43.5693 77.501 44.3934 77.604 44.9084C77.81 43.6723 78.222 42.8482 78.7371 42.4362C78.7371 43.8783 78.3251 45.2175 77.398 46.4536C78.3251 45.7325 79.1491 44.5994 79.7672 43.0543C79.7672 44.0844 79.3552 45.1145 78.5311 46.3506C79.1491 45.8355 79.7672 45.0114 80.2822 43.7753C80.0762 44.9084 79.6642 45.8355 79.0461 46.6596C79.4582 45.7325 80.1792 44.7024 81.2093 43.6723C80.9003 45.3205 80.2822 46.4536 79.3552 47.0717C80.4883 46.5566 81.5184 45.3205 82.3425 43.3633C82.2394 45.0114 81.9304 46.3506 81.4154 47.4837C82.1364 46.5566 82.6515 45.3205 82.8575 43.8783C83.2695 44.5994 83.3726 45.4235 83.2695 46.4536C83.4756 45.4235 83.5786 44.7024 83.5786 44.2904C83.9906 45.2175 84.2996 46.2476 84.2996 47.4837C84.6087 45.6295 84.7117 44.3934 84.5057 43.7753C85.0207 44.2904 85.4328 45.9385 85.7418 48.7198C85.8448 46.0415 85.7418 44.3934 85.5358 43.5693C86.2568 45.3205 86.7719 47.1747 87.0809 49.2349C86.7719 46.3506 86.7719 44.5994 86.9779 44.1874C88.317 46.4536 89.1411 48.2048 89.4502 49.5439C88.7291 46.2476 88.214 44.2904 88.008 43.6723C89.2441 45.0114 90.6863 46.0415 92.2314 46.5566C90.1712 45.3205 89.1411 44.2904 89.2441 43.4663C91.6134 44.7024 93.4676 46.2476 94.7037 48.1018C93.0555 45.2175 91.9224 43.4663 91.2013 42.8482C92.2314 43.9813 93.6736 44.8054 95.5278 45.2175C93.4676 44.2904 92.5405 42.4362 92.2314 41.7151C94.8067 42.6422 96.2488 44.7024 97.1759 46.2476C95.1157 42.9512 93.8796 40.788 92.6435 39.2429C94.1886 39.8609 95.3217 40.17 96.2488 40.17C94.3946 39.5519 92.9525 39.0369 92.5405 38.0068C94.8067 38.6248 96.7639 39.3459 97.794 40.788C96.7639 39.1399 94.8067 38.3158 93.5706 37.8007C95.1157 38.5218 97.4849 38.0068 98 37.8007C96.8669 38.5218 92.4374 36.8736 87.699 35.3285C86.9779 36.2556 79.4582 39.2429 73.8956 36.1526ZM81.2093 18.3318C80.3853 20.186 80.2822 22.1432 80.9003 24.2034C81.4154 23.8944 86.5659 21.7311 96.4548 17.8168C97.2789 15.3445 97.0729 13.0783 95.7338 11.0181C86.8749 15.3445 82.0334 17.8168 81.2093 18.3318Z" fill="#2E2C3B"/>
</g>
</svg>
